<?xml version="1.0" standalone="no"?><!DOCTYPE svg PUBLIC "-//W3C//DTD SVG 1.1//EN" "http://www.w3.org/Graphics/SVG/1.1/DTD/svg11.dtd"><svg t="1773891626943" class="icon" viewBox="0 0 1024 1024" version="1.1" xmlns="http://www.w3.org/2000/svg" p-id="7816" xmlns:xlink="http://www.w3.org/1999/xlink" width="200" height="200"><path d="M85.333333 0h853.333334a85.333333 85.333333 0 0 1 85.333333 85.333333v853.333334a85.333333 85.333333 0 0 1-85.333333 85.333333H85.333333a85.333333 85.333333 0 0 1-85.333333-85.333333V85.333333a85.333333 85.333333 0 0 1 85.333333-85.333333z m238.08 206.506667V810.666667h217.6c28.416 0 56.490667-2.816 84.053334-8.533334 27.562667-5.717333 52.053333-15.189333 73.386666-28.586666 21.333333-13.397333 38.570667-30.976 51.626667-52.906667 13.056-21.930667 19.626667-49.322667 19.626667-82.346667a147.882667 147.882667 0 0 0-36.693334-98.56 139.093333 139.093333 0 0 0-41.386666-31.573333 156.16 156.16 0 0 0-52.48-15.786667v-1.706666c31.317333-9.642667 56.576-25.6 75.946666-47.786667 19.370667-22.186667 29.013333-50.346667 29.013334-84.48 0-27.306667-5.376-50.602667-16.213334-69.973333a141.397333 141.397333 0 0 0-42.24-47.36 172.8 172.8 0 0 0-59.306666-26.453334 283.818667 283.818667 0 0 0-67.413334-8.106666H323.413333zM430.933333 452.266667V298.666667h88.746667c40.96 0 70.656 6.4 89.173333 19.2 18.517333 12.8 27.733333 32.256 27.733334 58.453333a66.389333 66.389333 0 0 1-26.88 55.04c-17.92 13.909333-44.8 20.906667-80.64 20.906667H430.933333z m0 266.24V544.426667h103.253334c43.776 0 76.117333 6.229333 96.853333 18.773333 20.736 12.544 31.146667 34.730667 31.146667 66.56 0 19.882667-4.266667 35.669333-12.8 47.36a84.992 84.992 0 0 1-32.426667 26.88c-13.056 6.229333-27.477333 10.24-43.093333 11.946667-15.616 1.706667-30.293333 2.56-43.946667 2.56H430.933333z" fill="#49afe4" p-id="7817"></path></svg>