<?xml version="1.0" standalone="no"?><!DOCTYPE svg PUBLIC "-//W3C//DTD SVG 1.1//EN" "http://www.w3.org/Graphics/SVG/1.1/DTD/svg11.dtd"><svg t="1773225137877" class="icon" viewBox="0 0 1024 1024" version="1.1" xmlns="http://www.w3.org/2000/svg" p-id="12461" xmlns:xlink="http://www.w3.org/1999/xlink" width="200" height="200"><path d="M938.666667 746.666667c0 121.6-183.466667 213.333333-426.666667 213.333333S85.333333 868.266667 85.333333 746.666667V277.333333C85.333333 155.733333 268.8 64 512 64s426.666667 91.733333 426.666667 213.333333v469.333334zM170.666667 746.666667c0 51.2 132.266667 128 341.333333 128s341.333333-76.8 341.333333-128v-104.533334c-76.8 51.2-198.4 83.2-341.333333 83.2s-264.533333-32-341.333333-83.2V746.666667z m0-339.2V512c0 51.2 132.266667 128 341.333333 128s341.333333-76.8 341.333333-128v-104.533333c-76.8 51.2-198.4 83.2-341.333333 83.2s-264.533333-32-341.333333-83.2zM512 149.333333c-209.066667 0-341.333333 76.8-341.333333 128s132.266667 128 341.333333 128 341.333333-76.8 341.333333-128-132.266667-128-341.333333-128z" p-id="12462"></path></svg>