<?xml version="1.0" standalone="no"?><!DOCTYPE svg PUBLIC "-//W3C//DTD SVG 1.1//EN" "http://www.w3.org/Graphics/SVG/1.1/DTD/svg11.dtd"><svg t="1773225289708" class="icon" viewBox="0 0 1024 1024" version="1.1" xmlns="http://www.w3.org/2000/svg" p-id="16641" xmlns:xlink="http://www.w3.org/1999/xlink" width="200" height="200"><path d="M143.936 928a47.936 47.936 0 0 1-47.936-48v-512A47.936 47.936 0 0 1 143.936 320h544a48 48 0 0 1 48 48v104.96a48 48 0 0 1-96 0V416h-448V832h448v-33.536a48 48 0 1 1 96 0v81.536a48 48 0 0 1-48 48z m256-256a48.064 48.064 0 0 1-48-48.192V544a48 48 0 1 1 96 0V576h384V192h-384v32a48 48 0 1 1-96 0V143.872a48.064 48.064 0 0 1 48-48h480a48.064 48.064 0 0 1 47.936 48v480a48.064 48.064 0 0 1-47.936 48.192z" p-id="16642"></path></svg>