<?xml version="1.0" standalone="no"?><!DOCTYPE svg PUBLIC "-//W3C//DTD SVG 1.1//EN" "http://www.w3.org/Graphics/SVG/1.1/DTD/svg11.dtd"><svg t="1773971725972" class="icon" viewBox="0 0 1024 1024" version="1.1" xmlns="http://www.w3.org/2000/svg" p-id="14628" xmlns:xlink="http://www.w3.org/1999/xlink" width="200" height="200"><path d="M186.096 0h651.632c51.416 0 93.096 41.68 93.096 93.096v744.72c0 102.824-83.36 186.184-186.192 186.184H186.096C134.68 1024 93 982.32 93 930.904V93.096C93 41.68 134.68 0 186.096 0z" fill="#7C7F95" p-id="14629"></path><path d="M837.728 0h-46.552c51.416 0 93.096 41.68 93.096 93.088v744.736c0 102.816-83.36 186.176-186.184 186.176h46.544c102.832 0 186.192-83.36 186.192-186.176V93.096C930.824 41.68 889.144 0 837.728 0z" fill="#4C4F6E" p-id="14630"></path><path d="M186.096 0h512c51.4 0 93.08 41.68 93.08 93.096v744.72C791.176 940.64 707.84 1024 605 1024H186.096C134.68 1024 93 982.32 93 930.904V93.096C93 41.68 134.68 0 186.096 0z" fill="#CACAD4" p-id="14631"></path><path d="M279.176 23.28a23.272 23.272 0 1 1-46.536 0 23.272 23.272 0 0 1 46.536 0zM744.64 23.28a23.272 23.272 0 1 1-46.544 0 23.272 23.272 0 0 1 46.536 0z" fill="#EAEAEE" p-id="14632"></path><path d="M465.36 744.72h-46.536v-46.544a46.544 46.544 0 0 0-93.096-0.024v46.576h-46.552a46.552 46.552 0 0 0-0.024 93.096h46.576v46.544a46.552 46.552 0 0 0 93.096 0.032V837.824h46.544a46.552 46.552 0 0 0 0.032-93.096h-0.032zM651.544 791.28a46.552 46.552 0 1 1-93.104-0.016 46.552 46.552 0 0 1 93.104 0.008zM744.64 698.176a46.544 46.544 0 1 1-93.096 0 46.544 46.544 0 0 1 93.088 0z" fill="#999AAC" p-id="14633"></path><path d="M232.64 139.632h418.904a46.552 46.552 0 0 1 46.552 46.544v279.28c0 51.408-41.68 93.088-93.096 93.088H232.632A46.544 46.544 0 0 1 186.096 512V186.176a46.544 46.544 0 0 1 46.536-46.544z" fill="#7C7F95" p-id="14634"></path><path d="M279.176 186.176h325.824V512H279.176z" fill="#8FE9DB" p-id="14635"></path><path d="M302.456 186.176a23.28 23.28 0 0 1 23.272 23.28V488.72a23.28 23.28 0 0 1-46.552 0V209.44a23.28 23.28 0 0 1 23.28-23.272z" fill="#18AEAC" p-id="14636"></path><path d="M255.904 186.176a23.272 23.272 0 0 1 23.28 23.28V488.72a23.272 23.272 0 1 1-46.552 0V209.44a23.28 23.28 0 0 1 23.28-23.272z" fill="#4C4F6E" p-id="14637"></path><path d="M628.272 186.176a23.28 23.28 0 0 1 23.28 23.28V488.72a23.28 23.28 0 0 1-46.552 0V209.44a23.28 23.28 0 0 1 23.28-23.272z" fill="#999AAC" p-id="14638"></path><path d="M418.824 698.176h-46.552v-46.544a46.544 46.544 0 0 0-93.096 0v46.544H232.64a46.544 46.544 0 0 0 0 93.096h46.544v46.552a46.552 46.552 0 0 0 93.096 0v-46.552h46.552a46.552 46.552 0 0 0 0-93.096z" fill="#2C2F53" p-id="14639"></path><path d="M418.824 744.72h-46.552a46.544 46.544 0 0 0-46.544 46.56v37.224a23.28 23.28 0 0 0 46.544 0.048v-37.28h46.552a23.28 23.28 0 0 0 0-46.544z" fill="#080B36" p-id="14640"></path><path d="M116.272 46.544h651.632a23.272 23.272 0 1 1 0 46.552H116.272a23.28 23.28 0 0 1 0-46.552z" fill="#4C4F6E" p-id="14641"></path><path d="M209.36 0a23.272 23.272 0 0 1 23.28 23.28v46.544a23.272 23.272 0 1 1-46.544 0V23.272A23.272 23.272 0 0 1 209.36 0zM674.824 0a23.28 23.28 0 0 1 23.272 23.28v46.544a23.28 23.28 0 0 1-46.552 0V23.272A23.28 23.28 0 0 1 674.824 0z" fill="#4C4F6E" p-id="14642"></path><path d="M698.096 651.632a46.544 46.544 0 1 1-93.096 0 46.544 46.544 0 0 1 93.096 0zM605 744.72a46.544 46.544 0 1 1-93.096 0 46.552 46.552 0 0 1 93.096 0z" fill="#E80035" p-id="14643"></path><path d="M558.456 721.456a23.28 23.28 0 1 1-46.56-0.008 23.28 23.28 0 0 1 46.56 0zM651.544 628.36a23.272 23.272 0 1 1-46.536 0 23.272 23.272 0 0 1 46.536 0z" fill="#FB7C8A" p-id="14644"></path><path d="M628.272 977.456a23.184 23.184 0 0 1-16.448-6.824l-46.552-46.536a23.28 23.28 0 0 1 32.904-32.92l46.552 46.552a23.28 23.28 0 0 1-16.456 39.728zM674.824 930.904a23.208 23.208 0 0 1-16.456-6.808l-46.544-46.552a23.28 23.28 0 0 1 32.904-32.912l46.544 46.544a23.272 23.272 0 0 1-16.448 39.728zM721.36 884.368a23.256 23.256 0 0 1-16.456-6.824l-46.536-46.544a23.256 23.256 0 0 1 0-32.904 23.256 23.256 0 0 1 32.904 0l46.552 46.536a23.272 23.272 0 0 1-16.456 39.736z" fill="#2C2F53" p-id="14645"></path><path d="M850.936 33.72a23.28 23.28 0 0 0-19.88 35.336c4.376 7.248 6.688 15.56 6.672 24.032v744.736c0 8.312-0.728 16.616-2.192 24.8l-0.144 0.944c-0.08 0.32-0.144 0.624-0.208 0.944A140.8 140.8 0 0 1 749.76 967.6a23.28 23.28 0 0 0 17.12 43.28l0.112-0.04a186.496 186.496 0 0 0 113.888-137.488c0.088-0.424 0.16-0.848 0.216-1.264a16.88 16.88 0 0 0 0.256-1.248c0.36-2.008 0.688-4.024 0.984-6.056v-0.016l0.032-0.24v-0.016l0.04-0.24v-0.032l0.032-0.208V864l0.048-0.272 0.016-0.208 0.016-0.056 0.024-0.2 0.008-0.08 0.024-0.136 0.016-0.12 0.016-0.128 0.016-0.104 0.04-0.272 0.016-0.128 0.016-0.144 0.016-0.096 0.024-0.192v-0.08l0.032-0.184v-0.08l0.032-0.128v-0.056l0.032-0.224v-0.04l0.032-0.256v-0.024l0.088-0.72 0.008-0.008 0.032-0.28c0.36-3.072 0.648-6.16 0.848-9.272l0.048-0.728 0.008-0.024 0.016-0.272v-0.016l0.016-0.28v-0.024a7.944 7.944 0 0 0 0.032-0.424v-0.04l0.016-0.24v-0.048l0.016-0.24v-0.048l0.024-0.416v-0.08l0.016-0.192v-0.088c0-0.072 0-0.12 0.016-0.184v-0.216l0.016-0.16v-0.2l0.016-0.192v-0.08l0.016-0.192v-0.216l0.016-0.16v-0.24l0.016-0.144v-0.256l0.016-0.136V844.696l0.016-0.096V844.192l0.008-0.12 0.008-0.152v-0.08l0.008-0.192v-0.08l0.008-0.2v-0.072l0.008-0.16v-0.088l0.008-0.184v-0.28l0.008-0.064v-0.208l0.008-0.056v-0.248l0.008-0.2v-0.056l0.008-0.216v-0.28l0.008-0.048v-0.24l0.008-0.216v-0.32l0.008-0.224v-0.56l0.008-0.216v-0.056-0.256-0.256l0.008-0.232V91.816l-0.016-0.136V91.008l-0.016-0.176V90.4l-0.016-0.184v-0.24l-0.016-0.144v-0.272l-0.016-0.136v-0.256l-0.016-0.16V88.768l-0.016-0.184v-0.184l-0.008-0.056-0.008-0.152v-0.032l-0.008-0.184v-0.048l-0.008-0.136-0.008-0.056-0.008-0.16v-0.048l-0.008-0.16-0.008-0.056-0.008-0.136v-0.04l-0.016-0.184v-0.048l-0.008-0.128-0.008-0.08-0.008-0.12-0.008-0.056-0.008-0.168-0.008-0.056-0.008-0.128v-0.064l-0.016-0.16v-0.016l-0.016-0.176-0.008-0.064v-0.184l-0.024-0.176v-0.04l-0.016-0.136v-0.064l-0.016-0.128v-0.056l-0.024-0.168v-0.056l-0.016-0.136v-0.056l-0.016-0.144v-0.04l-0.024-0.168v-0.064l-0.016-0.128v-0.056l-0.016-0.168-0.008-0.04-0.008-0.152-0.008-0.048-0.024-0.192-0.016-0.168-0.008-0.048-0.008-0.136-0.008-0.064-0.016-0.136-0.008-0.04-0.016-0.176-0.008-0.048-0.024-0.192-0.024-0.16v-0.048l-0.016-0.144v-0.064l-0.024-0.112v-0.064l-0.032-0.176v-0.048l-0.024-0.128v-0.064l-0.024-0.128v-0.048l-0.016-0.16-0.008-0.08-0.016-0.104-0.008-0.072-0.024-0.136-0.008-0.08-0.016-0.128-0.016-0.072-0.016-0.104-0.008-0.08-0.032-0.216-0.024-0.184-0.024-0.128v-0.056l-0.032-0.16v-0.064l-0.024-0.112v-0.08l-0.032-0.144v-0.024l-0.032-0.16v-0.072l-0.024-0.112-0.008-0.064-0.024-0.168-0.008-0.048-0.024-0.128-0.008-0.064-0.024-0.128-0.008-0.056-0.032-0.16-0.008-0.056-0.016-0.128-0.016-0.064-0.024-0.128v-0.04l-0.032-0.168-0.016-0.064-0.016-0.112-0.016-0.072-0.024-0.16V76.72l-0.024-0.144-0.016-0.064-0.024-0.12-0.008-0.048-0.032-0.176-0.008-0.048-0.024-0.128-0.016-0.056-0.024-0.128-0.008-0.048-0.032-0.16v-0.064l-0.032-0.12-0.016-0.064-0.032-0.16v-0.024l-0.032-0.16-0.016-0.056-0.016-0.12-0.008-0.056-0.04-0.176-0.008-0.04-0.024-0.128-0.016-0.056-0.024-0.144-0.008-0.032-0.04-0.176v-0.04l-0.032-0.136-0.016-0.048-0.032-0.152-0.04-0.192-0.016-0.056-0.016-0.136-0.016-0.04-0.032-0.168-0.016-0.04-0.024-0.136-0.016-0.056-0.032-0.136-0.008-0.04-0.04-0.168v-0.048l-0.056-0.192-0.032-0.144V72.08l-0.048-0.176v-0.056l-0.032-0.128-0.016-0.048-0.04-0.168-0.008-0.016-0.032-0.16-0.016-0.048-0.032-0.128-0.008-0.048-0.048-0.176v-0.032l-0.04-0.136-0.016-0.056-0.032-0.144v-0.032l-0.048-0.168-0.008-0.04-0.032-0.144-0.016-0.032a5.76 5.76 0 0 1-0.088-0.352l-0.016-0.04-0.04-0.152v-0.024l-0.048-0.176v-0.024l-0.048-0.152-0.016-0.048-0.032-0.16-0.008-0.008-0.048-0.176-0.008-0.032-0.04-0.152-0.008-0.032-0.104-0.352v-0.04l-0.048-0.144v-0.024l-0.048-0.184h-0.008l-0.048-0.176-0.008-0.032-0.048-0.16v-0.008l-0.056-0.192-0.056-0.176v-0.024c-0.04-0.12-0.08-0.24-0.104-0.36l-0.008-0.016-0.048-0.176h-0.008c-0.04-0.128-0.08-0.24-0.112-0.376V66.16c-0.064-0.184-0.12-0.36-0.168-0.552l-0.184-0.56-0.12-0.368v-0.016l-0.176-0.544v-0.008a92.504 92.504 0 0 0-8.8-19.168 23.264 23.264 0 0 0-19.936-11.224z" fill="#2C2F53" p-id="14646"></path><path d="M372.272 674.904a23.272 23.272 0 1 1-46.544 0 23.272 23.272 0 0 1 46.544 0z" fill="#080B36" p-id="14647"></path><path d="M325.728 628.36a23.272 23.272 0 1 1-46.544 0 23.272 23.272 0 0 1 46.544 0zM232.64 721.456a23.272 23.272 0 1 1-46.544 0 23.272 23.272 0 0 1 46.536 0z" fill="#999AAC" p-id="14648"></path></svg>