<?xml version="1.0" standalone="no"?><!DOCTYPE svg PUBLIC "-//W3C//DTD SVG 1.1//EN" "http://www.w3.org/Graphics/SVG/1.1/DTD/svg11.dtd"><svg t="1773225080758" class="icon" viewBox="0 0 1088 1024" version="1.1" xmlns="http://www.w3.org/2000/svg" p-id="10213" xmlns:xlink="http://www.w3.org/1999/xlink" width="212.5" height="200"><path d="M937.6 341.888l-7.36 0.192L548.48 106.496a103.04 103.04 0 0 0-21.12-44.928C491.52 19.2 433.408 13.568 392.064 48.576c-16.064 13.44-26.688 32.256-34.304 59.264l-198.912 117.76-7.36-0.384a92.288 92.288 0 0 0-82.752-13.568C16.64 227.84-11.52 279.872 4.48 331.072c8.192 32.832 36.928 59.008 71.296 65.792l5.248 5.12 46.784 206.464-2.432 6.784a99.072 99.072 0 0 0-37.632 75.264c0 54.528 41.92 96.384 96.448 96.384 18.112 0 37.44-6.208 53.824-17.152l7.168-0.192 196.672 116.352 3.136 7.36a35.072 35.072 0 0 0-1.408 9.472c0 54.592 41.856 96.448 96.384 96.448s96.384-41.856 96.384-96.448a107.52 107.52 0 0 0-6.144-36.736l1.344-6.912 319.936-342.976 6.848-1.856a100.48 100.48 0 0 0 91.008-15.744c44.608-35.072 51.584-96.192 16-138.24-33.472-39.488-86.976-47.04-127.744-18.368z m-359.296 160l6.272-5.632 287.04-15.488 5.248 11.264-296.96 316.032-7.04 1.792-4.032-1.344c-2.176-0.64-2.176-0.64-4.224-1.088l-5.12-5.184-43.776-205.056 3.136-7.168c32-19.2 53.696-51.2 59.456-88.064zM439.872 604.16l6.016 5.248 43.904 205.888-9.984 7.232-194.56-115.136-3.072-7.36a35.072 35.072 0 0 0 1.408-9.472 63.616 63.616 0 0 0-3.52-20.352l2.176-7.168L377.6 585.664l8-0.32c15.68 10.624 34.304 17.088 54.272 18.752z m-202.368 1.152l-7.04 0.832a84.864 84.864 0 0 0-24.384-8.32l-5.568-5.184-42.816-188.8 9.216-7.616 160.256 69.056 3.904 7.68a31.872 31.872 0 0 0-1.152 8.32c0 14.912 1.984 28.16 6.208 41.152l-2.304 7.36-96.32 75.52z m-45.952-288A160 160 0 0 0 192 294.464l3.392-6.4 178.624-102.848 8.32 1.28a126.4 126.4 0 0 0 33.664 25.28l3.648 5.952v139.52l-4.672 6.4c-19.84 6.272-36.864 17.664-50.496 33.6l-7.744 1.856L195.2 329.152l-4.032-6.528 0.32-5.44z m336.192-129.28l8.832-1.6 341.568 208.704-3.136 12.48-302.72 18.56-6.272-3.456c-14.72-26.944-39.616-48.128-68.736-58.56l-4.416-6.4V218.24l3.776-6.08c4.8-2.368 10.176-5.696 19.584-11.904l1.792-1.472c4.608-4.608 7.488-7.808 9.728-10.688z" p-id="10214"></path><path d="M459.648 608.832a128 128 0 1 0 0-256 128 128 0 0 0 0 256z" p-id="10215"></path></svg>