<?xml version="1.0" encoding="UTF-8"?>
<svg version="1.1" xmlns="http://www.w3.org/2000/svg" width="1680" height="1680" fill="currentColor">
<path d="M0 0 C2.47309302 0.02904353 4.94404423 0.0205555 7.41723633 0.00756836 C15.71340007 0.01862449 23.11110546 0.33262802 30.91137695 3.46655273 C32.55106445 4.02729492 32.55106445 4.02729492 34.22387695 4.59936523 C35.11075195 4.92678711 35.99762695 5.25420898 36.91137695 5.59155273 C37.81887695 5.92413086 38.72637695 6.25670898 39.66137695 6.59936523 C41.91137695 7.46655273 41.91137695 7.46655273 43.91137695 8.46655273 C43.91137695 9.12655273 43.91137695 9.78655273 43.91137695 10.46655273 C44.63325195 10.54905273 45.35512695 10.63155273 46.09887695 10.71655273 C49.52753513 11.63086158 51.19360397 13.19839655 53.91137695 15.46655273 C55.18368164 16.47395508 55.18368164 16.47395508 56.48168945 17.50170898 C57.32473633 18.17073242 58.1677832 18.83975586 59.03637695 19.52905273 C59.88458008 20.2006543 60.7327832 20.87225586 61.60668945 21.56420898 C63.49838792 23.12566179 65.19810952 24.71940714 66.91137695 26.46655273 C67.90137695 27.29155273 68.89137695 28.11655273 69.91137695 28.96655273 C74.41137695 32.71655273 74.41137695 32.71655273 75.91137695 34.46655273 C75.91137695 35.12655273 75.91137695 35.78655273 75.91137695 36.46655273 C77.23137695 36.79655273 78.55137695 37.12655273 79.91137695 37.46655273 C80.24137695 38.78655273 80.57137695 40.10655273 80.91137695 41.46655273 C81.5043457 41.5606543 82.09731445 41.65475586 82.70825195 41.75170898 C85.40280337 42.62600492 86.37460452 43.73375591 88.16137695 45.90405273 C88.6821582 46.52151367 89.20293945 47.13897461 89.73950195 47.77514648 C90.91137695 49.46655273 90.91137695 49.46655273 90.91137695 51.46655273 C92.23137695 51.46655273 93.55137695 51.46655273 94.91137695 51.46655273 C95.24137695 52.45655273 95.57137695 53.44655273 95.91137695 54.46655273 C97.23623772 55.14990197 98.57079855 55.81457745 99.91137695 56.46655273 C101.5871582 58.16577148 101.5871582 58.16577148 103.22387695 60.15405273 C106.59679726 64.14088787 110.17621368 67.82096173 113.91137695 71.46655273 C116.48089183 73.97631145 118.83960825 76.37367559 121.03637695 79.21655273 C122.78569292 81.71707729 122.78569292 81.71707729 125.91137695 82.46655273 C127.63012695 84.24389648 127.63012695 84.24389648 129.41137695 86.40405273 C131.54013716 88.97630466 133.0952884 90.58916036 135.91137695 92.46655273 C135.91137695 93.12655273 135.91137695 93.78655273 135.91137695 94.46655273 C136.57137695 94.46655273 137.23137695 94.46655273 137.91137695 94.46655273 C139.08541201 95.57152691 140.24933888 96.68891004 141.36450195 97.85327148 C143.13551629 99.70031421 144.96112074 101.48563238 146.78637695 103.27905273 C149.51659171 105.9989842 152.09510948 108.78730843 154.59887695 111.71655273 C156.47514294 113.90200025 158.15105615 115.65829609 160.41137695 117.46655273 C162.71061821 119.30594574 164.38945442 121.10739953 166.28637695 123.34155273 C168.52080035 125.96288928 170.74929623 128.28197528 173.41137695 130.46655273 C176.74735385 133.2116279 179.47984087 136.2901102 182.27856445 139.57202148 C185.23075093 142.99740531 188.14800971 145.95764124 191.91137695 148.46655273 C191.91137695 149.12655273 191.91137695 149.78655273 191.91137695 150.46655273 C192.90137695 150.79655273 193.89137695 151.12655273 194.91137695 151.46655273 C194.91137695 152.12655273 194.91137695 152.78655273 194.91137695 153.46655273 C195.57137695 153.46655273 196.23137695 153.46655273 196.91137695 153.46655273 C198.17548848 154.94134951 199.37277888 156.47372544 200.53637695 158.02905273 C203.72424693 162.12774271 206.99659867 165.44960235 210.9777832 168.75561523 C212.98903132 170.53526508 214.67922969 172.41625598 216.41137695 174.46655273 C219.38654441 177.97956511 222.60979209 180.95500695 226.1184082 183.92749023 C228.15439907 185.67515995 230.01502563 187.57020141 231.91137695 189.46655273 C234.19972889 190.6107287 235.47039401 190.59470311 238.01382065 190.60077381 C239.31006666 190.60746058 239.31006666 190.60746058 240.63249946 190.61428243 C242.06505462 190.61400589 242.06505462 190.61400589 243.52655029 190.61372375 C245.04184495 190.61923879 245.04184495 190.61923879 246.58775163 190.62486523 C249.99478543 190.63593552 253.40178877 190.63975156 256.80883789 190.64355469 C259.24271747 190.64981678 261.67659608 190.65646335 264.11047363 190.66346741 C271.430456 190.68271968 278.75043588 190.6932993 286.07043588 190.7021952 C289.51650417 190.70657691 292.96257093 190.71194404 296.408638 190.71718407 C307.86252905 190.73419755 319.31641914 190.74869191 330.77032089 190.75593281 C333.74344636 190.75784274 336.71657183 190.75976307 339.68969727 190.76171875 C340.79814866 190.76244436 340.79814866 190.76244436 341.92899302 190.76318463 C353.90086731 190.77148564 365.87264171 190.79682316 377.84447238 190.82929943 C390.13232153 190.8623615 402.4201199 190.88038081 414.70801377 190.88357705 C421.60858493 190.885743 428.50901043 190.89450379 435.40953827 190.92003822 C441.90032979 190.94400078 448.39093018 190.94757621 454.88175964 190.93727684 C457.26583477 190.93677992 459.64992255 190.94314616 462.03395844 190.95683289 C465.28571251 190.97445851 468.53651521 190.96749096 471.78826904 190.95429993 C472.73438293 190.96526917 473.68049682 190.97623842 474.65528083 190.98754007 C480.42994687 190.93088323 483.41076827 190.11310794 487.91137695 186.46655273 C488.65387695 186.13655273 489.39637695 185.80655273 490.16137695 185.46655273 C492.4551258 184.15583911 492.82190017 182.84978321 493.91137695 180.46655273 C495.85847033 177.78090669 497.6786093 175.65031667 500.28637695 173.59155273 C502.46172574 171.8305561 503.97114956 170.28677523 505.72387695 168.15405273 C507.84559318 165.59417147 510.04041327 163.41735207 512.5871582 161.28295898 C517.1235786 157.36464472 521.20681796 153.10227001 525.28637695 148.71655273 C525.99665039 147.96245117 526.70692383 147.20834961 527.4387207 146.43139648 C530.16610347 143.51770294 532.6927338 140.79451746 534.91137695 137.46655273 C535.57137695 137.46655273 536.23137695 137.46655273 536.91137695 137.46655273 C537.28456055 136.58676758 537.28456055 136.58676758 537.6652832 135.68920898 C539.08548891 133.1559894 540.62321441 131.75669921 542.84887695 129.90405273 C545.79443739 127.4346514 545.79443739 127.4346514 548.5402832 124.75170898 C549.91137695 123.46655273 549.91137695 123.46655273 551.91137695 123.46655273 C552.18723633 122.87487305 552.4630957 122.28319336 552.74731445 121.67358398 C555.88080551 115.73256907 561.02404733 111.3314847 566.08325195 107.04467773 C568.05983666 105.38420061 568.05983666 105.38420061 570.28637695 103.02905273 C571.91137695 101.46655273 571.91137695 101.46655273 573.91137695 101.46655273 C574.1743457 100.86327148 574.43731445 100.25999023 574.70825195 99.63842773 C575.97982066 97.34299852 577.09735119 96.297113 579.16137695 94.71655273 C582.56466818 91.93010805 585.03161162 88.88801628 587.55200195 85.29858398 C588.89294882 83.49138834 590.21182966 81.94223493 591.91137695 80.46655273 C592.57137695 80.46655273 593.23137695 80.46655273 593.91137695 80.46655273 C593.91137695 79.80655273 593.91137695 79.14655273 593.91137695 78.46655273 C594.57137695 78.46655273 595.23137695 78.46655273 595.91137695 78.46655273 C595.91137695 77.80655273 595.91137695 77.14655273 595.91137695 76.46655273 C596.57137695 76.46655273 597.23137695 76.46655273 597.91137695 76.46655273 C598.24137695 75.47655273 598.57137695 74.48655273 598.91137695 73.46655273 C600.34362286 72.26746313 601.78006829 71.07280474 603.2434082 69.91186523 C604.96564252 68.41953105 606.34431867 66.85362943 607.78637695 65.09155273 C610.58711346 61.71008609 613.70440645 58.92384233 617.0402832 56.07983398 C620.18839979 53.36548711 623.03968127 50.37040806 625.9230957 47.38061523 C626.64110352 46.64584961 627.35911133 45.91108398 628.09887695 45.15405273 C628.77305664 44.45666992 629.44723633 43.75928711 630.1418457 43.04077148 C631.91137695 41.46655273 631.91137695 41.46655273 633.91137695 41.46655273 C634.17950195 40.82717773 634.44762695 40.18780273 634.72387695 39.52905273 C635.91137695 37.46655273 635.91137695 37.46655273 638.91137695 36.46655273 C638.91137695 35.80655273 638.91137695 35.14655273 638.91137695 34.46655273 C644.38756743 29.46655273 644.38756743 29.46655273 646.91137695 29.46655273 C647.24137695 28.47655273 647.57137695 27.48655273 647.91137695 26.46655273 C649.3996582 24.96655273 649.3996582 24.96655273 651.22387695 23.46655273 C651.85293945 22.94834961 652.48200195 22.43014648 653.13012695 21.89624023 C653.71793945 21.42444336 654.30575195 20.95264648 654.91137695 20.46655273 C655.67450195 19.84780273 656.43762695 19.22905273 657.22387695 18.59155273 C658.91137695 17.46655273 658.91137695 17.46655273 660.91137695 17.46655273 C660.91137695 16.80655273 660.91137695 16.14655273 660.91137695 15.46655273 C664.27754168 13.51417719 667.60395724 11.61724867 671.09887695 9.90405273 C673.85497258 8.62373044 673.85497258 8.62373044 675.72387695 6.96655273 C679.13766405 4.62567016 682.98342644 3.68053097 686.91137695 2.46655273 C687.77037598 2.12809326 688.629375 1.78963379 689.5144043 1.44091797 C693.66060964 0.25164777 697.38753579 0.14268854 701.67700195 0.13061523 C702.51044128 0.12395844 703.34388062 0.11730164 704.20257568 0.11044312 C705.96079312 0.10035353 707.71904857 0.09562495 709.47729492 0.09594727 C712.13957383 0.09158843 714.8001736 0.05527084 717.4621582 0.01733398 C726.49590073 -0.04195618 733.73340639 0.25463591 741.91137695 4.46655273 C744.29383175 5.2863269 746.68841932 6.02386917 749.09887695 6.75561523 C750.91137695 7.46655273 750.91137695 7.46655273 752.91137695 9.46655273 C754.98011729 10.10907623 754.98011729 10.10907623 756.91137695 10.46655273 C756.91137695 11.12655273 756.91137695 11.78655273 756.91137695 12.46655273 C757.57137695 12.46655273 758.23137695 12.46655273 758.91137695 12.46655273 C758.91137695 13.12655273 758.91137695 13.78655273 758.91137695 14.46655273 C759.63325195 14.71405273 760.35512695 14.96155273 761.09887695 15.21655273 C768.25660027 18.3977631 773.36618739 24.82362031 778.59887695 30.46655273 C779.36586914 31.29155273 780.13286133 32.11655273 780.9230957 32.96655273 C782.88594406 35.43457424 783.76071411 37.56786167 784.91137695 40.46655273 C785.90137695 41.12655273 786.89137695 41.78655273 787.91137695 42.46655273 C788.94623572 44.78463638 789.94691836 47.11830572 790.91137695 49.46655273 C791.57137695 50.12655273 792.23137695 50.78655273 792.91137695 51.46655273 C795.43593095 56.74516564 797.18512941 62.220436 798.9465332 67.79467773 C799.85285079 70.63781466 799.85285079 70.63781466 801.91137695 73.46655273 C802.39259695 75.0798996 802.80498037 76.71432902 803.1730957 78.35717773 C803.51570435 79.86344727 803.51570435 79.86344727 803.86523438 81.40014648 C804.10733643 82.49456055 804.34943848 83.58897461 804.59887695 84.71655273 C804.85580322 85.85737305 805.11272949 86.99819336 805.37744141 88.17358398 C805.93265694 90.63987832 806.48554309 93.10669795 807.03637695 95.57397461 C807.92714109 99.53668202 808.8384329 103.49416799 809.75512695 107.45092773 C812.66475669 120.05358263 815.5027724 132.6216136 817.40356445 145.42358398 C817.74277532 148.37425521 817.74277532 148.37425521 818.91137695 150.46655273 C819.17814724 152.26720658 819.39853174 154.07484406 819.5949707 155.88452148 C819.71807617 156.97442383 819.84118164 158.06432617 819.96801758 159.18725586 C820.21975722 161.47873208 820.46978757 163.77039679 820.71801758 166.06225586 C821.44529172 172.55613386 821.44529172 172.55613386 822.9152832 178.90795898 C824.50098874 184.57296976 824.85278847 190.37285788 825.41137695 196.21655273 C826.36070206 206.19949505 826.36070206 206.19949505 827.94262695 216.09545898 C829.26428836 222.93870015 829.65212848 229.82533692 830.12231445 236.76928711 C830.19708008 237.77668945 830.2718457 238.7840918 830.34887695 239.82202148 C830.40946289 240.7155835 830.47004883 241.60914551 830.5324707 242.52978516 C830.92450176 245.56827842 831.67942806 248.42914211 832.45019531 251.38969421 C833.18883998 254.71606356 833.33995579 258.06222257 833.47387695 261.45483398 C833.52808556 262.55987526 833.52808556 262.55987526 833.58338928 263.6872406 C833.65970764 265.24833146 833.73277292 266.80958438 833.80276489 268.37097168 C833.98565615 272.42592628 834.19511156 276.47945431 834.4074707 280.53295898 C834.46915688 281.71527603 834.46915688 281.71527603 834.53208923 282.92147827 C834.91389385 289.98689284 835.57247658 296.99208029 836.4465332 304.01342773 C837.990346 317.63830403 838.07040266 331.30148101 838.10083008 344.99365234 C838.10879228 347.0042182 838.11718172 349.0147824 838.1259613 351.02534485 C838.14387269 355.31943713 838.15893785 359.61352612 838.17173767 363.90763664 C838.19210512 370.69321417 838.2197292 377.47875071 838.24841309 384.26429749 C838.31331035 399.87046381 838.36915272 415.47665985 838.42440033 431.08286285 C838.47523926 445.43541552 838.52800248 459.78795286 838.58892584 474.14046675 C838.61730804 480.89238677 838.64088853 487.64430162 838.66085052 494.39625156 C838.67418999 498.57759746 838.69160209 502.75891899 838.71016121 506.94024467 C838.71794638 508.88618864 838.7240031 510.83214035 838.72825432 512.77809525 C838.73425894 515.42188387 838.74628529 518.06557655 838.7598877 520.70933533 C838.76018368 521.48926202 838.76047967 522.26918872 838.76078463 523.07274956 C838.46766967 526.5616186 838.46766967 526.5616186 839.91137695 529.46655273 C841.92699549 529.49564959 843.94372019 529.45290978 845.95825195 529.38061523 C847.19575195 529.33678711 848.43325195 529.29295898 849.70825195 529.24780273 C851.0127832 529.19624023 852.31731445 529.14467773 853.66137695 529.09155273 C854.95043945 529.04772461 856.23950195 529.00389648 857.56762695 528.95874023 C862.80562763 528.76313025 867.77743986 528.54307451 872.91137695 527.46655273 C874.42957661 527.32825053 875.95115268 527.22341632 877.47387695 527.15014648 C878.34302734 527.10801025 879.21217773 527.06587402 880.10766602 527.02246094 C881.03289062 526.98338623 881.95811523 526.94431152 882.91137695 526.90405273 C883.87527344 526.86304443 884.83916992 526.82203613 885.83227539 526.77978516 C892.60757819 526.51355743 899.38102846 526.33379249 906.16137695 526.27905273 C907.40854492 526.25959595 907.40854492 526.25959595 908.6809082 526.23974609 C918.0949198 526.22557974 927.55961899 527.96945229 935.91137695 532.46655273 C935.91137695 533.12655273 935.91137695 533.78655273 935.91137695 534.46655273 C936.48887695 534.69342773 937.06637695 534.92030273 937.66137695 535.15405273 C943.4942476 538.55656061 946.72946298 545.62533233 948.66137695 551.90405273 C949.52305994 560.73630331 949.843278 571.72981171 944.72387695 579.34155273 C943.8182912 580.41108073 942.87995138 581.4537155 941.91137695 582.46655273 C941.4524707 582.99893555 940.99356445 583.53131836 940.52075195 584.07983398 C931.73233403 593.02360273 916.56585673 593.39206317 904.73168945 593.93139648 C903.15893195 594.00896029 901.58617819 594.08659996 900.01342773 594.16430664 C899.2003717 594.20340149 898.38731567 594.24249634 897.54962158 594.28277588 C883.99084436 594.93705595 870.4581477 595.7008101 856.93139648 596.85693359 C851.56374061 597.3076424 846.29804463 597.55090771 840.91137695 597.46655273 C837.8058603 597.46655273 836.55876612 598.00592423 833.91137695 599.46655273 C833.9577832 600.17038086 834.00418945 600.87420898 834.05200195 601.59936523 C834.32279482 609.00748424 833.16591633 615.10039357 830.8840332 622.14233398 C829.81613043 625.48811297 829.81613043 625.48811297 829.4074707 629.14233398 C828.95793451 632.15458041 828.45116271 633.79411307 826.91137695 636.34155273 C824.59615086 640.6196879 824.13404805 644.65685694 823.91137695 649.46655273 C825.08700195 649.52842773 826.26262695 649.59030273 827.47387695 649.65405273 C834.58186423 650.42885703 841.20908703 653.10319068 847.91137695 655.46655273 C849.49335692 655.99148245 851.07644791 656.51309562 852.66137695 657.02905273 C855.91608132 658.10988327 859.13212625 659.27765603 862.34887695 660.46655273 C866.62736257 662.0353308 870.92682276 663.40250493 875.2980957 664.68530273 C882.40074687 666.80866631 889.35983516 668.95109129 895.91137695 672.46655273 C896.73637695 672.79655273 897.56137695 673.12655273 898.41137695 673.46655273 C901.33560479 674.63624387 904.10874878 676.03264995 906.91137695 677.46655273 C906.91137695 678.12655273 906.91137695 678.78655273 906.91137695 679.46655273 C907.46825195 679.69342773 908.02512695 679.92030273 908.59887695 680.15405273 C914.3819313 683.43632683 918.35205364 688.92372416 920.49731445 695.17358398 C922.15528354 704.35497881 922.24460319 714.41078691 917.3215332 722.52905273 C913.07650838 728.36155222 906.60808428 734.17874589 899.48950195 736.13061523 C889.30669072 737.45746639 879.07076526 737.13604481 869.91137695 732.46655273 C866.95828914 731.63263856 863.98673069 730.92510393 861.0012207 730.21655273 C855.09868594 728.78382622 849.33093814 726.96756319 843.59887695 724.96655273 C839.87327848 723.69601116 836.13055977 722.81007628 832.28637695 721.96655273 C828.70140542 721.17452414 825.36960086 720.38804851 822.03637695 718.84155273 C818.9353243 717.30970843 818.9353243 717.30970843 815.41137695 716.96655273 C812.24859505 716.51472675 809.95144726 715.68483647 807.0715332 714.37280273 C804.16488955 713.153379 801.21644191 712.14377254 798.22387695 711.15405273 C797.12688477 710.78666992 796.02989258 710.41928711 794.8996582 710.04077148 C791.9849862 709.22920668 791.9849862 709.22920668 789.54418945 710.24780273 C787.74202164 711.32233193 787.74202164 711.32233193 787.47387695 713.27905273 C786.61851837 716.60544722 784.387443 718.16323548 781.91137695 720.46655273 C779.49984228 722.80029597 777.29624231 725.19534776 775.16137695 727.77905273 C770.83796264 732.87762466 765.70292685 737.00770477 760.53637695 741.21655273 C757.77475071 743.37818439 757.77475071 743.37818439 755.91137695 746.46655273 C754.92137695 746.79655273 753.93137695 747.12655273 752.91137695 747.46655273 C752.18950195 748.18842773 751.46762695 748.91030273 750.72387695 749.65405273 C747.90408566 752.47384403 744.97790773 754.70870828 741.76293945 757.04467773 C739.7579796 758.50702219 739.7579796 758.50702219 737.72387695 760.77905273 C735.51543982 762.83518386 733.86850757 763.13798267 730.91137695 763.46655273 C730.91137695 764.12655273 730.91137695 764.78655273 730.91137695 765.46655273 C725.16137695 768.46655273 725.16137695 768.46655273 722.91137695 768.46655273 C722.68450195 769.10592773 722.45762695 769.74530273 722.22387695 770.40405273 C720.91137695 772.46655273 720.91137695 772.46655273 718.28637695 773.21655273 C717.50262695 773.29905273 716.71887695 773.38155273 715.91137695 773.46655273 C715.58137695 774.45655273 715.25137695 775.44655273 714.91137695 776.46655273 C713.16918945 777.31030273 713.16918945 777.31030273 711.03637695 777.96655273 C707.78910982 778.97308572 706.28391225 780.08221378 703.91137695 782.46655273 C702.19405526 783.44306899 700.43795948 784.35253172 698.66137695 785.21655273 C697.60305664 785.7334668 696.54473633 786.25038086 695.4543457 786.78295898 C691.01049455 788.8946457 686.55394403 790.97888065 682.07641602 793.01831055 C679.39980321 794.24802788 676.82976035 795.51606191 674.30981445 797.04467773 C671.75504879 798.55922936 669.27419453 799.54794856 666.47387695 800.52905273 C665.50708008 800.8706543 664.5402832 801.21225586 663.54418945 801.56420898 C661.65076603 802.21314194 659.75155272 802.84527085 657.84887695 803.46655273 C655.20502703 804.36658675 652.67499379 805.39185369 650.09887695 806.46655273 C646.06569854 808.11014875 642.17568568 809.12969413 637.9152832 809.97436523 C635.70637344 810.43560126 635.70637344 810.43560126 633.09887695 811.90405273 C628.25900885 814.2765371 623.14720826 815.2668029 617.91137695 816.46655273 C616.70094727 816.74885742 615.49051758 817.03116211 614.2434082 817.32202148 C611.13434802 818.04419141 608.0237325 818.75874284 604.91137695 819.46655273 C604.58137695 820.78655273 604.25137695 822.10655273 603.91137695 823.46655273 C604.90137695 823.79655273 605.89137695 824.12655273 606.91137695 824.46655273 C606.91137695 825.12655273 606.91137695 825.78655273 606.91137695 826.46655273 C610.87137695 827.12655273 614.83137695 827.78655273 618.91137695 828.46655273 C618.91137695 829.12655273 618.91137695 829.78655273 618.91137695 830.46655273 C619.81887695 830.73467773 620.72637695 831.00280273 621.66137695 831.27905273 C624.6412953 832.36786905 626.59728055 833.33046374 628.91137695 835.46655273 C628.91137695 836.12655273 628.91137695 836.78655273 628.91137695 837.46655273 C629.55075195 837.56967773 630.19012695 837.67280273 630.84887695 837.77905273 C631.52950195 838.00592773 632.21012695 838.23280273 632.91137695 838.46655273 C633.24137695 839.45655273 633.57137695 840.44655273 633.91137695 841.46655273 C634.63067383 841.54905273 635.3499707 841.63155273 636.09106445 841.71655273 C639.55947139 842.63889918 641.3207435 844.1319186 644.03637695 846.46655273 C644.98383789 847.2722168 645.93129883 848.07788086 646.9074707 848.90795898 C647.89875977 849.75229492 648.89004883 850.59663086 649.91137695 851.46655273 C650.96136389 852.31323258 652.01475082 853.15571373 653.0715332 853.99389648 C654.07055664 854.78924805 655.06958008 855.58459961 656.09887695 856.40405273 C657.02055664 857.13495117 657.94223633 857.86584961 658.8918457 858.61889648 C659.55829102 859.22862305 660.22473633 859.83834961 660.91137695 860.46655273 C660.91137695 861.12655273 660.91137695 861.78655273 660.91137695 862.46655273 C661.63325195 862.69342773 662.35512695 862.92030273 663.09887695 863.15405273 C666.51386783 864.74771514 668.28402135 866.75348199 670.91137695 869.46655273 C672.01060951 870.55874645 673.1123072 871.64846307 674.21606445 872.73608398 C685.57199842 883.98945637 685.57199842 883.98945637 690.28637695 889.56420898 C692.20909977 891.81508883 694.21773726 893.97725186 696.22387695 896.15405273 C700.20819994 900.55383504 703.83932002 905.14977118 707.37353516 909.91259766 C709.34802851 912.54893692 711.30530241 914.83792101 713.70825195 917.10327148 C715.91137695 919.46655273 715.91137695 919.46655273 715.91137695 923.46655273 C716.55075195 923.69342773 717.19012695 923.92030273 717.84887695 924.15405273 C719.91137695 925.46655273 719.91137695 925.46655273 720.66137695 928.09155273 C720.74387695 928.87530273 720.82637695 929.65905273 720.91137695 930.46655273 C721.57137695 930.46655273 722.23137695 930.46655273 722.91137695 930.46655273 C724.6027832 932.73217773 724.6027832 932.73217773 726.47387695 935.71655273 C727.09391602 936.69108398 727.71395508 937.66561523 728.3527832 938.66967773 C729.67074879 941.03474882 730.45285136 942.8284603 730.91137695 945.46655273 C731.57137695 945.46655273 732.23137695 945.46655273 732.91137695 945.46655273 C734.50841933 947.83530029 735.97636485 950.18977477 737.41137695 952.65405273 C737.81485352 953.32758789 738.21833008 954.00112305 738.6340332 954.69506836 C740.71347579 958.21227736 742.44970829 961.64103715 743.91137695 965.46655273 C744.42700195 966.12655273 744.94262695 966.78655273 745.47387695 967.46655273 C747.14470326 969.79118064 747.52125065 971.65764333 747.91137695 974.46655273 C748.57137695 974.46655273 749.23137695 974.46655273 749.91137695 974.46655273 C750.16532227 974.98604492 750.41926758 975.50553711 750.6809082 976.04077148 C752.1926517 979.10389221 753.69446122 982.11081092 755.47387695 985.02905273 C756.90669403 987.45861212 757.99188238 989.93875683 759.08837891 992.53320312 C760.14776321 995.0218606 761.25700689 997.48781937 762.35913086 999.95776367 C765.40161551 1006.80550156 768.19483063 1013.70099362 770.77734375 1020.73461914 C772.27052799 1024.79291458 773.85041954 1028.79546434 775.53637695 1032.77905273 C784.09444253 1053.15539934 790.45401643 1075.40384499 794.45043945 1097.15795898 C795.00114169 1099.91613713 795.70371935 1102.61952325 796.41137695 1105.34155273 C797.70456558 1110.39083698 798.62902438 1115.42420233 799.3840332 1120.57983398 C799.87708128 1123.57303341 799.87708128 1123.57303341 800.91137695 1126.82983398 C801.96511022 1130.66196553 802.4642537 1134.40240045 802.84887695 1138.34155273 C803.47993799 1144.24934447 804.31610197 1150.06485944 805.41137695 1155.90405273 C806.64124296 1162.50979628 807.52145252 1169.10149728 808.17700195 1175.78857422 C808.603234 1180.04737626 809.1887123 1184.24998939 809.87963867 1188.47460938 C810.88346145 1194.95595044 811.49350921 1201.40673218 811.9465332 1207.94702148 C812.0298439 1209.10365295 812.1131546 1210.26028442 812.19898987 1211.45196533 C812.4643266 1215.18553973 812.71986161 1218.91969219 812.97387695 1222.65405273 C813.06264099 1223.92813995 813.15140503 1225.20222717 813.24285889 1226.5149231 C814.55070297 1245.41144918 815.42779706 1264.26951949 815.58349609 1283.21142578 C815.59307846 1284.02923523 815.60266083 1284.84704468 815.61253357 1285.68963623 C815.6289026 1287.194407 815.63684893 1288.69930477 815.63441467 1290.2041626 C815.67407343 1293.85344074 815.8264831 1295.33921195 817.91137695 1298.46655273 C820.06558595 1299.275976 820.06558595 1299.275976 822.6027832 1299.71264648 C823.54831055 1299.91051758 824.49383789 1300.10838867 825.46801758 1300.31225586 C826.45995117 1300.50754883 827.45188477 1300.7028418 828.47387695 1300.90405273 C836.98406812 1302.59244737 844.6251257 1304.6090519 851.91137695 1309.46655273 C853.27269228 1309.96406155 854.64991601 1310.41915424 856.03637695 1310.84155273 C860.78380564 1312.37473872 865.53209907 1314.0520848 869.91137695 1316.46655273 C870.24137695 1317.12655273 870.57137695 1317.78655273 870.91137695 1318.46655273 C873.02153649 1319.59361979 873.02153649 1319.59361979 875.47387695 1320.59155273 C876.30016602 1320.94475586 877.12645508 1321.29795898 877.9777832 1321.66186523 C878.61586914 1321.92741211 879.25395508 1322.19295898 879.91137695 1322.46655273 C879.91137695 1323.12655273 879.91137695 1323.78655273 879.91137695 1324.46655273 C880.64227539 1324.5709668 881.37317383 1324.67538086 882.1262207 1324.78295898 C889.49342373 1326.59117852 895.74341178 1333.03590628 901.53637695 1337.77905273 C902.06948486 1338.21145264 902.60259277 1338.64385254 903.15185547 1339.08935547 C904.4450762 1340.16884529 905.68388098 1341.31287524 906.91137695 1342.46655273 C906.91137695 1343.12655273 906.91137695 1343.78655273 906.91137695 1344.46655273 C907.49636963 1344.72774902 908.0813623 1344.98894531 908.68408203 1345.25805664 C912.60427968 1347.38509581 915.47408753 1350.70189752 918.59887695 1353.84155273 C919.63238281 1354.85088867 919.63238281 1354.85088867 920.68676758 1355.88061523 C921.67 1356.86288086 921.67 1356.86288086 922.6730957 1357.86499023 C923.56967896 1358.75710205 923.56967896 1358.75710205 924.484375 1359.66723633 C926.03873583 1361.62714041 926.36052536 1363.06648183 926.91137695 1365.46655273 C928.22784814 1366.16592805 929.56159847 1366.83384407 930.91137695 1367.46655273 C931.24137695 1368.45655273 931.57137695 1369.44655273 931.91137695 1370.46655273 C933.08971086 1371.61121996 934.26905858 1372.75486825 935.4543457 1373.89233398 C938.39882708 1377.07363692 940.59551545 1380.81768872 942.91137695 1384.46655273 C943.34579102 1385.12913086 943.78020508 1385.79170898 944.2277832 1386.47436523 C947.048478 1390.84246314 949.44008096 1395.34369493 951.71606445 1400.01733398 C952.47204344 1401.56634974 953.24594906 1403.10685453 954.04418945 1404.63452148 C956.24238411 1408.84365718 957.65624165 1412.86438997 958.91137695 1417.46655273 C959.40637695 1418.58030273 959.90137695 1419.69405273 960.41137695 1420.84155273 C961.83337659 1424.27805185 962.67330985 1427.43222921 963.3840332 1431.06030273 C963.90941302 1433.61633455 963.90941302 1433.61633455 964.89111328 1436.64941406 C965.91108067 1440.46544426 966.40627196 1444.01694482 966.76293945 1447.94702148 C966.82669769 1448.64112625 966.89045593 1449.33523102 966.95614624 1450.05036926 C967.08870864 1451.51147576 967.21794521 1452.9728875 967.34399414 1454.43457031 C967.53443971 1456.63170313 967.7376998 1458.82736936 967.94262695 1461.02319336 C969.91881828 1482.79531185 969.67437564 1505.52222733 962.91137695 1526.46655273 C962.38139715 1528.4224306 961.85994916 1530.38064937 961.34887695 1532.34155273 C959.39161266 1539.44452798 957.2943105 1546.14229188 953.77856445 1552.64233398 C952.86606172 1554.56187803 952.35979825 1556.39374815 951.91137695 1558.46655273 C951.25137695 1558.46655273 950.59137695 1558.46655273 949.91137695 1558.46655273 C948.42637695 1563.41655273 948.42637695 1563.41655273 946.91137695 1568.46655273 C946.25137695 1568.46655273 945.59137695 1568.46655273 944.91137695 1568.46655273 C944.66516602 1569.17553711 944.41895508 1569.88452148 944.1652832 1570.61499023 C940.38008118 1579.22308205 932.87377417 1586.86615851 926.8996582 1594.06811523 C925.75704498 1595.44643453 924.6235059 1596.83264086 923.5168457 1598.23999023 C920.11113324 1602.54553977 916.10473569 1605.96270601 911.91137695 1609.46655273 C910.9574707 1610.27350586 910.00356445 1611.08045898 909.02075195 1611.91186523 C901.17156504 1618.46655273 901.17156504 1618.46655273 898.91137695 1618.46655273 C898.91137695 1619.12655273 898.91137695 1619.78655273 898.91137695 1620.46655273 C897.27813384 1621.52025797 895.59893828 1622.50223197 893.91137695 1623.46655273 C892.4274497 1624.45947465 890.94866647 1625.46010854 889.47387695 1626.46655273 C886.05707132 1628.76142219 882.63072262 1630.69141048 878.91137695 1632.46655273 C878.06575195 1632.98217773 877.22012695 1633.49780273 876.34887695 1634.02905273 C873.91091574 1635.46682473 871.5535447 1636.46001264 868.91137695 1637.46655273 C867.94200195 1637.89967773 866.97262695 1638.33280273 865.97387695 1638.77905273 C852.6304105 1644.49768121 838.62328992 1649.01444754 824.23950195 1651.07202148 C821.89594207 1651.35281791 821.89594207 1651.35281791 819.91137695 1652.46655273 C802.77140255 1654.747025 785.35614261 1654.75429323 768.10009766 1654.70947266 C765.64100087 1654.71054948 763.18190434 1654.71249405 760.72280884 1654.71522522 C754.80971576 1654.71951867 748.89667443 1654.71471805 742.98359124 1654.70537492 C736.0625659 1654.69484368 729.14155199 1654.69506494 722.22052016 1654.6955475 C709.85370733 1654.69604505 697.48692061 1654.68696994 685.12011719 1654.67236328 C673.18391444 1654.658273 661.24773462 1654.6511932 649.31152344 1654.65185547 C648.20771124 1654.6519154 648.20771124 1654.6519154 647.08159981 1654.65197655 C646.34685864 1654.6520169 645.61211747 1654.65205726 644.85511142 1654.65209883 C631.16910245 1654.65279267 617.48310301 1654.64687719 603.79709715 1654.63794562 C598.99907776 1654.6349587 594.20106015 1654.63386962 589.40303993 1654.63341331 C582.92094812 1654.63265084 576.43887517 1654.62621003 569.95679092 1654.61624718 C567.5975846 1654.61336143 565.23837557 1654.61208868 562.87916756 1654.61267471 C522.35959806 1654.61892373 522.35959806 1654.61892373 506.91137695 1652.46655273 C506.58137695 1652.13655273 506.25137695 1651.80655273 505.91137695 1651.46655273 C504.35371095 1651.12336982 502.78452944 1650.83206454 501.2121582 1650.56420898 C499.76873047 1650.311875 499.76873047 1650.311875 498.29614258 1650.05444336 C496.26759074 1649.70753907 494.23894659 1649.36117413 492.21020508 1649.01538086 C487.28179929 1648.15299182 482.61415446 1647.22741007 477.91137695 1645.46655273 C477.16114258 1645.2203418 476.4109082 1644.97413086 475.63793945 1644.72045898 C470.67845203 1643.08880606 465.7928744 1641.31815521 460.91137695 1639.46655273 C459.92137695 1639.13655273 458.93137695 1638.80655273 457.91137695 1638.46655273 C457.91137695 1637.80655273 457.91137695 1637.14655273 457.91137695 1636.46655273 C456.63262695 1636.15717773 455.35387695 1635.84780273 454.03637695 1635.52905273 C451.8103602 1634.99050029 449.96397696 1634.49285274 447.91137695 1633.46655273 C447.91137695 1632.80655273 447.91137695 1632.14655273 447.91137695 1631.46655273 C446.94200195 1631.26030273 445.97262695 1631.05405273 444.97387695 1630.84155273 C440.04266596 1629.44992264 435.90544009 1626.62066268 431.91137695 1623.46655273 C431.58137695 1622.80655273 431.25137695 1622.14655273 430.91137695 1621.46655273 C429.26592259 1620.43202013 427.59497865 1619.43777007 425.91137695 1618.46655273 C424.12817441 1617.29770902 422.35713804 1616.1100896 420.59887695 1614.90405273 C419.71586914 1614.30463867 418.83286133 1613.70522461 417.9230957 1613.08764648 C416.92729492 1612.28520508 416.92729492 1612.28520508 415.91137695 1611.46655273 C415.91137695 1610.80655273 415.91137695 1610.14655273 415.91137695 1609.46655273 C415.14825195 1609.19842773 414.38512695 1608.93030273 413.59887695 1608.65405273 C410.96931134 1607.49215165 409.77436703 1606.58358692 407.91137695 1604.46655273 C407.07606445 1603.69311523 407.07606445 1603.69311523 406.22387695 1602.90405273 C404.91137695 1601.46655273 404.91137695 1601.46655273 404.91137695 1599.46655273 C403.59137695 1599.13655273 402.27137695 1598.80655273 400.91137695 1598.46655273 C400.58137695 1597.14655273 400.25137695 1595.82655273 399.91137695 1594.46655273 C399.27200195 1594.36342773 398.63262695 1594.26030273 397.97387695 1594.15405273 C397.29325195 1593.92717773 396.61262695 1593.70030273 395.91137695 1593.46655273 C395.58137695 1592.47655273 395.25137695 1591.48655273 394.91137695 1590.46655273 C393.26707866 1588.77781395 391.59753478 1587.11349759 389.91137695 1585.46655273 C383.87097936 1578.23526374 378.84790066 1570.14786065 373.9309082 1562.12280273 C373.07930602 1560.73935704 372.1875127 1559.38075635 371.28637695 1558.02905273 C369.70875409 1555.08893739 368.73329406 1552.16055018 367.7277832 1548.98608398 C366.85884515 1546.30443307 365.89416121 1543.67098607 364.91137695 1541.02905273 C362.1607308 1533.47267998 359.66432709 1526.36872264 359.31762695 1518.27905273 C359.03753249 1516.05189935 359.03753249 1516.05189935 355.91137695 1514.46655273 C353.13408941 1514.27676096 350.45805141 1514.20398994 347.6809082 1514.22363281 C346.83936188 1514.22173447 345.99781555 1514.21983612 345.13076782 1514.21788025 C342.32837778 1514.21415828 339.52624437 1514.22492439 336.72387695 1514.23608398 C334.74934927 1514.23727861 332.774821 1514.23772835 330.80029297 1514.23747253 C326.6338348 1514.23904154 322.46746201 1514.24734203 318.30102539 1514.26074219 C313.07157503 1514.27738253 307.84222076 1514.28148744 302.61274719 1514.28090954 C281.72139616 1514.28156531 260.8467792 1514.38694411 239.96777344 1515.1587677 C230.36952677 1515.49789149 220.90919164 1515.24572438 211.32543945 1514.72827148 C202.98287337 1514.32925551 194.63660392 1514.34743227 186.28637695 1514.34155273 C185.51422852 1514.33914581 184.74208008 1514.33673889 183.9465332 1514.33425903 C181.73424943 1514.32832061 179.52210026 1514.32972977 177.30981445 1514.33374023 C175.38661377 1514.33543213 175.38661377 1514.33543213 173.42456055 1514.3371582 C170.00884182 1514.37861451 170.00884182 1514.37861451 167.08325195 1514.98461914 C162.61767885 1515.66311678 158.2678297 1515.45673012 153.76293945 1515.31030273 C152.79158051 1515.28432007 151.82022156 1515.2583374 150.81942749 1515.23156738 C146.68314708 1515.12081604 142.54729547 1514.99672233 138.41137695 1514.87329102 C135.38284664 1514.78486328 132.35417991 1514.70365857 129.32543945 1514.62280273 C128.40123199 1514.59263062 127.47702454 1514.5624585 126.52481079 1514.53137207 C125.20336563 1514.49638611 125.20336563 1514.49638611 123.85522461 1514.46069336 C123.09166656 1514.43769165 122.32810852 1514.41468994 121.54141235 1514.39099121 C118.7208551 1514.42699699 118.7208551 1514.42699699 115.19073486 1514.95883179 C110.61638286 1515.56376578 106.10663011 1515.60708391 101.49780273 1515.59594727 C100.59276505 1515.59769958 99.68772736 1515.5994519 98.75526428 1515.60125732 C95.78905269 1515.60562886 92.82290156 1515.60275598 89.85668945 1515.59936523 C87.78783151 1515.60003927 85.71897364 1515.60101013 83.65011597 1515.6022644 C79.32801556 1515.6037347 75.00593588 1515.601607 70.68383789 1515.59692383 C65.13528369 1515.59120546 59.58677764 1515.59452305 54.03822517 1515.60049629 C49.77299636 1515.60410168 45.50777905 1515.60296379 41.2425499 1515.6003685 C39.19554514 1515.59970028 37.14853934 1515.60052402 35.1015358 1515.60284805 C32.25052342 1515.6053765 29.39959042 1515.60153222 26.54858398 1515.59594727 C25.27379433 1515.59898361 25.27379433 1515.59898361 23.97325134 1515.6020813 C18.139914 1515.58082126 18.139914 1515.58082126 15.91137695 1514.46655273 C13.0570912 1514.11889664 10.20966159 1513.81067105 7.34887695 1513.52905273 C-1.97946054 1512.54446626 -10.37411074 1511.00903741 -19.08862305 1507.46655273 C-19.87108398 1507.17006836 -20.65354492 1506.87358398 -21.4597168 1506.56811523 C-24.39361983 1505.33875319 -27.11930685 1503.8832822 -29.90112305 1502.34155273 C-30.87694336 1501.80272461 -31.85276367 1501.26389648 -32.8581543 1500.70874023 C-33.96223633 1500.09385742 -33.96223633 1500.09385742 -35.08862305 1499.46655273 C-35.08862305 1498.80655273 -35.08862305 1498.14655273 -35.08862305 1497.46655273 C-35.68481445 1497.35480713 -36.28100586 1497.24306152 -36.89526367 1497.12792969 C-39.29830564 1496.40332587 -40.37610089 1495.59586505 -42.18237305 1493.88452148 C-42.73795898 1493.36438477 -43.29354492 1492.84424805 -43.8659668 1492.30834961 C-44.71868164 1491.48947266 -44.71868164 1491.48947266 -45.58862305 1490.65405273 C-46.15709961 1490.11973633 -46.72557617 1489.58541992 -47.3112793 1489.03491211 C-48.91445343 1487.52286969 -50.50419053 1485.99819697 -52.08862305 1484.46655273 C-52.86077148 1483.72147461 -53.63291992 1482.97639648 -54.4284668 1482.20874023 C-56.1619587 1480.38959344 -57.00205446 1478.71212781 -58.08862305 1476.46655273 C-59.06615949 1475.44458282 -60.06921115 1474.44675648 -61.08862305 1473.46655273 C-68.49538871 1464.74470827 -72.11797928 1454.37326416 -75.08862305 1443.46655273 C-75.30389648 1442.71374023 -75.51916992 1441.96092773 -75.7409668 1441.18530273 C-82.35980325 1416.83571463 -77.80906946 1387.85461485 -65.64331055 1366.09545898 C-60.31014203 1357.07731223 -60.31014203 1357.07731223 -57.08862305 1355.46655273 C-56.77924805 1354.84780273 -56.46987305 1354.22905273 -56.15112305 1353.59155273 C-55.02045304 1351.33021272 -53.93507744 1350.17623273 -52.08862305 1348.46655273 C-50.96713867 1347.32186523 -50.96713867 1347.32186523 -49.82299805 1346.15405273 C-35.26681454 1331.8474038 -35.26681454 1331.8474038 -26.33862305 1329.46655273 C-23.06361069 1328.83295617 -23.06361069 1328.83295617 -21.90150595 1326.69189829 C-21.01253456 1324.25825315 -20.83636376 1322.44720594 -20.83249664 1319.8610239 C-20.82626455 1318.93536076 -20.82003245 1318.00969762 -20.81361151 1317.05598408 C-20.81855997 1315.53548471 -20.81855997 1315.53548471 -20.8236084 1313.98426819 C-20.81703649 1312.36446184 -20.81703649 1312.36446184 -20.81033182 1310.71193212 C-20.79797369 1307.07939743 -20.7998227 1303.44700646 -20.80151367 1299.81445312 C-20.7954908 1297.2138294 -20.78856689 1294.61320763 -20.7808075 1292.0125885 C-20.76533555 1286.39893978 -20.75693832 1280.78531621 -20.75309753 1275.17164803 C-20.74733398 1267.01493851 -20.72871499 1258.8582959 -20.70665699 1250.70161598 C-20.67089573 1237.4146951 -20.64261603 1224.12777039 -20.62036133 1210.84082031 C-20.61902634 1210.04532182 -20.61769135 1209.24982332 -20.6163159 1208.43021881 C-20.60824935 1203.6000811 -20.60035845 1198.76994313 -20.59253025 1193.93980503 C-20.58089048 1186.75804669 -20.56909058 1179.57628865 -20.55688477 1172.39453125 C-20.55488865 1171.21775426 -20.55488865 1171.21775426 -20.55285221 1170.01720399 C-20.53022606 1156.81946524 -20.49992656 1143.62175399 -20.46449232 1130.4240436 C-20.44498712 1123.03576045 -20.42950572 1115.647511 -20.42414856 1108.25920296 C-20.38326945 1054.75677796 -20.38326945 1054.75677796 -19.19213867 1032.55810547 C-19.13408696 1031.43801753 -19.13408696 1031.43801753 -19.07486248 1030.29530156 C-18.68927951 1023.1543622 -18.13210453 1016.35011904 -16.08862305 1009.46655273 C-15.81206267 1007.73412808 -15.57007638 1005.99548838 -15.37768555 1004.25170898 C-15.21526367 1002.86338867 -15.21526367 1002.86338867 -15.04956055 1001.44702148 C-14.93870117 1000.4840918 -14.8278418 999.52116211 -14.71362305 998.52905273 C-13.81881845 991.25876539 -12.76902128 984.09978683 -11.08862305 976.96655273 C-10.93474121 976.30405518 -10.78085937 975.64155762 -10.62231445 974.95898438 C-9.5269272 970.54508454 -7.90801007 966.61236907 -6.08862305 962.46655273 C-5.63303687 960.57912428 -5.17799192 958.69155717 -4.72924805 956.80249023 C-1.88835899 946.44363866 3.02603247 936.90184885 7.9206543 927.3996582 C9.61075537 924.10192033 11.25906909 920.78334099 12.91137695 917.46655273 C14.24471029 914.79988607 15.57804362 912.1332194 16.91137695 909.46655273 C17.57137695 909.46655273 18.23137695 909.46655273 18.91137695 909.46655273 C19.15887695 908.57967773 19.40637695 907.69280273 19.66137695 906.77905273 C20.96867379 903.31471611 22.53670934 901.2729781 24.91137695 898.46655273 C25.91780446 896.80375947 26.91723103 895.13671789 27.91137695 893.46655273 C28.75084522 892.1859626 29.60586127 890.91546735 30.47387695 889.65405273 C30.88766602 889.04948242 31.30145508 888.44491211 31.7277832 887.82202148 C32.11836914 887.3747168 32.50895508 886.92741211 32.91137695 886.46655273 C33.57137695 886.46655273 34.23137695 886.46655273 34.91137695 886.46655273 C35.25168945 885.66217773 35.25168945 885.66217773 35.59887695 884.84155273 C37.36707785 881.64195112 39.44807898 879.1761805 41.91137695 876.46655273 C42.57137695 876.46655273 43.23137695 876.46655273 43.91137695 876.46655273 C44.30389648 875.59836914 44.30389648 875.59836914 44.7043457 874.71264648 C47.84332482 868.87150411 53.20140736 864.05257576 57.91137695 859.46655273 C58.75700195 858.55905273 59.60262695 857.65155273 60.47387695 856.71655273 C62.78389691 854.58422662 63.85327527 853.80634181 66.91137695 853.46655273 C66.91137695 852.47655273 66.91137695 851.48655273 66.91137695 850.46655273 C68.56137695 849.80655273 70.21137695 849.14655273 71.91137695 848.46655273 C71.91137695 847.80655273 71.91137695 847.14655273 71.91137695 846.46655273 C73.80981445 845.06420898 73.80981445 845.06420898 76.28637695 843.52905273 C79.39347941 841.60067645 80.84286411 840.569322 82.91137695 837.46655273 C84.88437811 836.41428545 86.88814083 835.41866385 88.91137695 834.46655273 C90.00579102 833.80719727 90.00579102 833.80719727 91.12231445 833.13452148 C94.593568 831.05857574 98.14968543 829.170467 101.72387695 827.27905273 C102.76318359 826.72701172 102.76318359 826.72701172 103.82348633 826.16381836 C105.51881794 825.26353881 107.2150102 824.36488028 108.91137695 823.46655273 C108.91137695 822.47655273 108.91137695 821.48655273 108.91137695 820.46655273 C108.91137695 819.47655273 108.91137695 818.48655273 108.91137695 817.46655273 C107.83887695 817.48717773 106.76637695 817.50780273 105.66137695 817.52905273 C102.76347272 817.48075433 100.62525555 817.33499388 97.91137695 816.46655273 C97.91137695 815.80655273 97.91137695 815.14655273 97.91137695 814.46655273 C96.89430664 814.42788086 96.89430664 814.42788086 95.85668945 814.38842773 C89.73038293 814.01507941 84.86400958 812.91031361 79.25512695 810.44311523 C77.07418443 809.53438918 75.02299273 808.92577516 72.72387695 808.40405273 C68.86199216 807.45440893 65.54789712 806.06151772 61.91137695 804.46655273 C60.52005867 803.99469091 59.12380768 803.53721414 57.72387695 803.09155273 C47.32653948 799.69923533 37.48099457 794.92474063 27.66137695 790.15405273 C26.52313477 789.60426758 25.38489258 789.05448242 24.2121582 788.48803711 C21.44383198 787.15040049 18.67694719 785.80987554 15.91137695 784.46655273 C15.91137695 783.80655273 15.91137695 783.14655273 15.91137695 782.46655273 C15.25137695 782.40467773 14.59137695 782.34280273 13.91137695 782.27905273 C10.33332454 781.30999687 7.75739813 779.64634487 4.6809082 777.62280273 C2.914503 776.42025115 2.914503 776.42025115 0.91137695 775.46655273 C0.91137695 774.80655273 0.91137695 774.14655273 0.91137695 773.46655273 C0.12762695 773.28092773 -0.65612305 773.09530273 -1.46362305 772.90405273 C-6.57809944 770.8758983 -10.66010115 767.68860945 -15.08862305 764.46655273 C-17.98419665 762.46917225 -20.89887315 760.57380268 -23.96362305 758.84155273 C-24.66487305 758.38780273 -25.36612305 757.93405273 -26.08862305 757.46655273 C-26.08862305 756.80655273 -26.08862305 756.14655273 -26.08862305 755.46655273 C-26.64549805 755.19842773 -27.20237305 754.93030273 -27.77612305 754.65405273 C-33.18202696 751.87804802 -38.45278541 748.9306795 -41.15112305 743.21655273 C-41.46049805 742.63905273 -41.76987305 742.06155273 -42.08862305 741.46655273 C-43.41456409 741.10493245 -44.74800762 740.76927235 -46.08862305 740.46655273 C-46.41862305 739.47655273 -46.74862305 738.48655273 -47.08862305 737.46655273 C-47.78987305 737.23967773 -48.49112305 737.01280273 -49.21362305 736.77905273 C-53.01883159 735.04189231 -54.92543398 732.44713711 -57.5378418 729.24389648 C-58.98201263 727.36155371 -58.98201263 727.36155371 -61.08862305 726.46655273 C-61.08862305 725.80655273 -61.08862305 725.14655273 -61.08862305 724.46655273 C-61.74862305 724.46655273 -62.40862305 724.46655273 -63.08862305 724.46655273 C-63.08862305 723.80655273 -63.08862305 723.14655273 -63.08862305 722.46655273 C-63.66612305 722.21905273 -64.24362305 721.97155273 -64.83862305 721.71655273 C-68.43025113 719.7212038 -70.59248888 717.31990351 -72.65112305 713.77905273 C-73.93634401 711.16244832 -73.93634401 711.16244832 -77.08862305 710.46655273 C-79.58501707 711.11354716 -81.96427075 711.82931176 -84.40112305 712.65405273 C-85.84071251 713.12438109 -87.28082847 713.5931006 -88.72143555 714.06030273 C-89.44878906 714.29749023 -90.17614258 714.53467773 -90.92553711 714.77905273 C-95.28249356 716.16383709 -99.69399299 717.35522716 -104.1003418 718.57202148 C-107.05887512 719.40684768 -107.05887512 719.40684768 -109.71362305 720.52905273 C-111.98879855 721.42714833 -113.99452485 721.89006439 -116.40112305 722.27905273 C-125.46904318 723.98946881 -134.26505185 727.12577573 -142.96362305 730.15405273 C-146.87278967 731.48706358 -150.81764774 732.24782463 -154.8737793 732.99780273 C-157.4218598 733.53707903 -159.67934376 734.48981789 -162.08862305 735.46655273 C-171.03774123 737.22128179 -182.17974597 738.03496873 -190.2878418 733.13842773 C-192.30692113 731.66050645 -194.20560238 730.11312103 -196.08862305 728.46655273 C-197.17143555 727.56936523 -197.17143555 727.56936523 -198.27612305 726.65405273 C-205.72734093 717.66120356 -206.64409645 709.00839805 -205.70581055 697.71264648 C-204.88040894 690.75196414 -202.03340847 686.00329611 -196.7487793 681.45092773 C-184.75316775 672.65291372 -170.59172586 668.2345889 -156.6003418 663.66186523 C-153.58034783 662.63392513 -150.65469215 661.51019794 -147.71362305 660.27905273 C-143.88376083 658.68857839 -140.16167373 657.76738801 -136.10424805 656.95874023 C-133.19457613 656.24823895 -130.73746203 654.84615637 -128.08862305 653.46655273 C-121.82464486 650.90511979 -115.82583289 649.87444227 -109.08862305 649.46655273 C-109.27038086 648.57516602 -109.27038086 648.57516602 -109.45581055 647.66577148 C-110.56910611 642.15924035 -111.59713006 636.64795736 -112.52612305 631.10717773 C-113.04228602 628.41488074 -113.04228602 628.41488074 -114.04956055 625.70483398 C-115.35144735 621.64744993 -116.03829719 617.60416611 -116.71362305 613.40405273 C-116.9147168 612.21972656 -116.9147168 612.21972656 -117.11987305 611.01147461 C-117.75860427 607.12368712 -118.26370825 603.42188658 -118.08862305 599.46655273 C-118.74862305 599.46655273 -119.40862305 599.46655273 -120.08862305 599.46655273 C-120.41862305 598.14655273 -120.74862305 596.82655273 -121.08862305 595.46655273 C-121.65299072 595.80009766 -122.2173584 596.13364258 -122.79882812 596.47729492 C-125.44092116 597.61875574 -126.88085417 597.58193664 -129.7253418 597.29467773 C-130.67489746 597.20831055 -131.62445313 597.12194336 -132.6027832 597.03295898 C-133.64998535 596.92854492 -134.6971875 596.82413086 -135.77612305 596.71655273 C-144.30345943 595.95339144 -152.81435601 595.34309656 -161.3659668 594.95092773 C-162.25851669 594.90993958 -163.15106659 594.86895142 -164.07066345 594.82672119 C-167.66009878 594.66460558 -171.24961734 594.50612076 -174.83969116 594.35876465 C-214.334056 592.73475495 -214.334056 592.73475495 -223.08862305 584.46655273 C-224.09924805 583.72405273 -225.10987305 582.98155273 -226.15112305 582.21655273 C-230.59144165 578.52010194 -233.03221769 573.08425974 -234.08862305 567.46655273 C-234.89580415 557.22688383 -234.45525327 548.58226548 -229.08862305 539.46655273 C-228.11738258 538.4385975 -227.12278027 537.43118678 -226.08862305 536.46655273 C-225.75862305 535.80655273 -225.42862305 535.14655273 -225.08862305 534.46655273 C-223.76862305 534.46655273 -222.44862305 534.46655273 -221.08862305 534.46655273 C-220.75862305 533.47655273 -220.42862305 532.48655273 -220.08862305 531.46655273 C-217.97924805 530.33374023 -217.97924805 530.33374023 -215.33862305 529.34155273 C-214.4775293 529.00897461 -213.61643555 528.67639648 -212.72924805 528.33374023 C-208.5518906 526.96188616 -204.6569954 526.33982837 -200.2644043 526.33374023 C-199.33217041 526.33156494 -198.39993652 526.32938965 -197.43945312 526.32714844 C-196.4368042 526.33190186 -195.43415527 526.33665527 -194.40112305 526.34155273 C-192.81303833 526.34771606 -192.81303833 526.34771606 -191.19287109 526.35400391 C-170.16239267 526.49769904 -149.45182138 527.80837216 -128.56518555 530.20703125 C-126.17212549 530.50129285 -126.17212549 530.50129285 -124.08862305 530.46655273 C-124.08715649 529.60118582 -124.08568993 528.7358189 -124.08417892 527.84422874 C-124.04656737 506.45032816 -123.98686704 485.05657917 -123.90472031 463.66280174 C-123.8654827 453.31548263 -123.83292316 442.96823401 -123.81762695 432.62084961 C-123.74285906 384.74149493 -123.08670674 337.19977293 -119.08862305 289.46655273 C-118.9330509 287.56113452 -118.77799667 285.65567394 -118.62350464 283.75016785 C-118.02743279 276.4271116 -117.41014317 269.10717964 -116.73706055 261.79077148 C-116.18401062 255.71443597 -115.73648016 249.63586276 -115.32348633 243.54858398 C-114.52944336 231.86079975 -113.23441904 220.37101409 -111.43676758 208.79760742 C-110.89570663 205.17485153 -110.45960071 201.5409828 -110.02612305 197.90405273 C-109.35978636 192.43568635 -108.53481728 187.02519779 -107.58862305 181.59936523 C-106.78951803 176.59247287 -106.22789356 171.55768275 -105.65112305 166.52124023 C-105.27310635 163.5272438 -104.73138496 160.59729673 -104.11987305 157.64233398 C-102.8503891 151.48768774 -102.04691482 145.28674749 -101.2331543 139.05834961 C-100.54769491 134.02796214 -99.55004243 129.34189512 -98.08862305 124.46655273 C-97.74406861 122.53449561 -97.43015618 120.59665486 -97.15112305 118.65405273 C-96.40695119 113.9370579 -95.26631249 109.57416691 -93.80737305 105.03686523 C-93.00064794 102.15194612 -92.53396972 99.30310812 -92.08862305 96.34155273 C-91.31906696 91.36169807 -89.99453483 87.1033232 -88.08862305 82.46655273 C-86.68994723 78.63287653 -85.36683005 74.82936387 -84.54956055 70.82592773 C-82.5600388 61.11706159 -78.03363016 52.95635339 -73.08862305 44.46655273 C-72.64873047 43.70922852 -72.20883789 42.9519043 -71.75561523 42.17163086 C-71.31636719 41.43879883 -70.87711914 40.7059668 -70.42456055 39.95092773 C-70.02543457 39.28287109 -69.62630859 38.61481445 -69.21508789 37.92651367 C-68.84335449 37.44472656 -68.47162109 36.96293945 -68.08862305 36.46655273 C-67.42862305 36.46655273 -66.76862305 36.46655273 -66.08862305 36.46655273 C-65.93393555 35.50749023 -65.93393555 35.50749023 -65.77612305 34.52905273 C-65.43581055 33.50811523 -65.43581055 33.50811523 -65.08862305 32.46655273 C-64.09862305 32.13655273 -63.10862305 31.80655273 -62.08862305 31.46655273 C-61.79987305 30.72405273 -61.51112305 29.98155273 -61.21362305 29.21655273 C-59.79642472 25.75229015 -57.81872694 24.00618426 -55.08862305 21.46655273 C-53.88206055 20.19811523 -53.88206055 20.19811523 -52.65112305 18.90405273 C-49.97724161 16.36060454 -47.18459978 14.46173774 -44.08862305 12.46655273 C-43.42862305 11.80655273 -42.76862305 11.14655273 -42.08862305 10.46655273 C-40.10040992 10.06891011 -38.09917966 9.72879925 -36.08862305 9.46655273 C-36.08862305 8.80655273 -36.08862305 8.14655273 -36.08862305 7.46655273 C-35.30551758 7.21131836 -35.30551758 7.21131836 -34.5065918 6.95092773 C-33.77053711 6.70858398 -33.03448242 6.46624023 -32.27612305 6.21655273 C-31.47037842 5.95559814 -30.66463379 5.69464355 -29.83447266 5.42578125 C-27.13885173 4.53111541 -27.13885173 4.53111541 -24.82836914 3.43603516 C-16.63380705 -0.14856559 -8.78035344 -0.11251272 0 0 Z M102.91137695 392.46655273 C103.03497036 400.77919063 103.18998241 409.09044826 103.38280678 417.40174007 C103.47145128 421.26301828 103.55011514 425.12391139 103.60424805 428.98583984 C103.67508245 452.90744059 103.67508245 452.90744059 110.91137695 475.46655273 C111.46027588 476.58408936 112.0091748 477.70162598 112.57470703 478.85302734 C114.90944465 483.42696045 117.44935643 487.64639215 120.91137695 491.46655273 C121.44762695 492.06467773 121.98387695 492.66280273 122.53637695 493.27905273 C123.86085042 494.68442602 123.86085042 494.68442602 125.91137695 494.46655273 C125.97325195 495.06467773 126.03512695 495.66280273 126.09887695 496.27905273 C127.25877345 499.40185101 129.00531132 499.88716924 131.91137695 501.46655273 C133.74822006 502.77801921 135.55650001 504.12219955 137.3605957 505.47827148 C138.8859943 506.64569446 138.8859943 506.64569446 140.91137695 506.46655273 C140.91137695 507.12655273 140.91137695 507.78655273 140.91137695 508.46655273 C142.00579102 508.88614258 142.00579102 508.88614258 143.12231445 509.31420898 C146.48892907 510.70517721 149.62858918 512.40988158 152.82543945 514.15014648 C161.48085971 517.84239538 169.85984233 519.04855813 179.22387695 519.02905273 C180.31458496 519.02881104 181.40529297 519.02856934 182.52905273 519.02832031 C191.66551975 518.83477987 200.70210998 517.40164777 207.6184082 510.84936523 C208.04508789 510.39303711 208.47176758 509.93670898 208.91137695 509.46655273 C209.67450195 509.03342773 210.43762695 508.60030273 211.22387695 508.15405273 C214.70455217 505.96851248 217.1343109 503.50195051 219.91137695 500.46655273 C219.91137695 499.80655273 219.91137695 499.14655273 219.91137695 498.46655273 C220.57137695 498.46655273 221.23137695 498.46655273 221.91137695 498.46655273 C223.35830277 496.36569929 224.68099378 494.28413457 225.97387695 492.09155273 C226.33803711 491.48827148 226.70219727 490.88499023 227.07739258 490.26342773 C230.53477711 484.70233901 230.53477711 484.70233901 229.91137695 478.46655273 C228.92137695 478.46655273 227.93137695 478.46655273 226.91137695 478.46655273 C226.58137695 477.47655273 226.25137695 476.48655273 225.91137695 475.46655273 C224.26137695 475.13655273 222.61137695 474.80655273 220.91137695 474.46655273 C220.58137695 473.47655273 220.25137695 472.48655273 219.91137695 471.46655273 C218.39116003 470.25554576 218.39116003 470.25554576 216.47387695 469.21655273 C211.43579793 466.21342734 206.68429413 462.87179189 201.91137695 459.46655273 C200.9059082 458.75499023 199.90043945 458.04342773 198.86450195 457.31030273 C197.8693457 456.59874023 196.87418945 455.88717773 195.84887695 455.15405273 C194.92977539 454.49791992 194.01067383 453.84178711 193.0637207 453.16577148 C190.91137695 451.46655273 190.91137695 451.46655273 189.91137695 449.46655273 C186.12792063 447.22243628 186.12792063 447.22243628 181.91137695 446.46655273 C181.91137695 445.80655273 181.91137695 445.14655273 181.91137695 444.46655273 C178.16038991 441.65331245 174.10041293 439.42194298 170.03637695 437.09155273 C165.56441156 434.51627913 161.44690636 431.77479696 157.43481445 428.53295898 C155.94823172 427.27539862 155.94823172 427.27539862 153.91137695 427.46655273 C153.91137695 426.80655273 153.91137695 426.14655273 153.91137695 425.46655273 C152.2323475 424.11360206 152.2323475 424.11360206 150.03637695 422.77905273 C146.5473588 420.53179537 143.115029 418.23439902 139.72387695 415.84155273 C137.09743811 413.99211891 134.46775561 412.17376265 131.78637695 410.40405273 C127.03924909 407.20490135 122.47262233 403.78493772 118.09887695 400.09155273 C115.96417647 398.16839073 115.96417647 398.16839073 112.91137695 398.46655273 C112.91137695 397.80655273 112.91137695 397.14655273 112.91137695 396.46655273 C110.15694735 394.22964953 110.15694735 394.22964953 107.34887695 394.46655273 C106.54450195 394.46655273 105.74012695 394.46655273 104.91137695 394.46655273 C104.25137695 393.80655273 103.59137695 393.14655273 102.91137695 392.46655273 Z M606.91137695 393.46655273 C606.29262695 394.10592773 605.67387695 394.74530273 605.03637695 395.40405273 C602.91137695 397.46655273 602.91137695 397.46655273 600.91137695 398.46655273 C600.91137695 399.12655273 600.91137695 399.78655273 600.91137695 400.46655273 C598.24471029 401.79988607 595.57804362 403.1332194 592.91137695 404.46655273 C592.91137695 405.12655273 592.91137695 405.78655273 592.91137695 406.46655273 C592.23333008 406.70116211 591.5552832 406.93577148 590.85668945 407.17749023 C587.22501319 408.76695067 584.05103124 410.87048667 580.78637695 413.09155273 C580.12549072 413.53668213 579.46460449 413.98181152 578.78369141 414.44042969 C573.94023573 417.72079944 569.18868127 421.11550828 564.4777832 424.58374023 C561.85028576 426.51137154 559.20105145 428.40318468 556.53637695 430.27905273 C555.76551758 430.82174805 554.9946582 431.36444336 554.20043945 431.92358398 C550.9820286 434.09299062 547.65514869 436.04154031 544.28637695 437.96655273 C541.96373808 439.31151792 541.96373808 439.31151792 540.51293945 440.86499023 C538.75332056 442.62460913 536.89803951 444.09403058 534.91137695 445.59155273 C534.23075195 446.10975586 533.55012695 446.62795898 532.84887695 447.16186523 C530.91137695 448.46655273 530.91137695 448.46655273 527.91137695 449.46655273 C527.43700195 449.94092773 526.96262695 450.41530273 526.47387695 450.90405273 C524.74595618 452.63197351 523.08404957 453.38021643 520.91137695 454.46655273 C519.90848262 455.46365 518.9090101 456.46419147 517.91137695 457.46655273 C516.4700488 458.65416394 515.0102828 459.81962258 513.53637695 460.96655273 C512.78614258 461.55436523 512.0359082 462.14217773 511.26293945 462.74780273 C508.88682909 464.4844947 506.439782 465.96285843 503.91137695 467.46655273 C502.27703939 468.5990278 500.65209844 469.74517263 499.03637695 470.90405273 C496.04605998 473.04063198 493.14522111 474.91146529 489.84887695 476.52905273 C486.69942618 478.17324055 486.69942618 478.17324055 486.0012207 481.18139648 C485.88360583 485.48201002 487.19513171 487.39083273 489.53637695 490.96655273 C489.90811035 491.53825195 490.27984375 492.10995117 490.6628418 492.69897461 C495.96197282 500.74094138 501.5368947 506.58143808 509.91137695 511.46655273 C510.57137695 512.12655273 511.23137695 512.78655273 511.91137695 513.46655273 C513.8677458 514.29326884 513.8677458 514.29326884 516.09887695 514.96655273 C516.83493164 515.20374023 517.57098633 515.44092773 518.3293457 515.68530273 C519.18141602 515.94311523 520.03348633 516.20092773 520.91137695 516.46655273 C521.93102539 516.82104492 522.95067383 517.17553711 524.0012207 517.54077148 C529.0188192 518.95736192 534.11053893 518.79577056 539.28637695 518.77905273 C540.27637695 518.79516602 541.26637695 518.8112793 542.28637695 518.82788086 C550.80493333 518.83349996 557.56819337 516.90218637 565.09887695 512.96655273 C566.34797852 512.31879883 566.34797852 512.31879883 567.62231445 511.65795898 C568.37770508 511.26479492 569.1330957 510.87163086 569.91137695 510.46655273 C571.00450195 509.95092773 572.09762695 509.43530273 573.22387695 508.90405273 C576.09071227 507.37062919 578.41884113 505.54366592 580.91137695 503.46655273 C581.57137695 503.13655273 582.23137695 502.80655273 582.91137695 502.46655273 C582.91137695 501.80655273 582.91137695 501.14655273 582.91137695 500.46655273 C583.50305664 500.1997168 584.09473633 499.93288086 584.7043457 499.65795898 C596.69303655 493.18618782 604.41879951 478.05271086 608.2355957 465.57202148 C608.91137695 463.46655273 608.91137695 463.46655273 609.92773438 461.42749023 C611.30795604 457.27277979 611.2683163 453.33872385 611.32543945 448.98608398 C611.3448056 448.05922287 611.36417175 447.13236176 611.38412476 446.17741394 C611.44371168 443.21138684 611.49003291 440.2453131 611.53637695 437.27905273 C611.57461273 435.33437485 611.6136676 433.38971288 611.65356445 431.44506836 C611.88140859 419.78483135 611.96041222 408.12877332 611.91137695 396.46655273 C611.27200195 396.34280273 610.63262695 396.21905273 609.97387695 396.09155273 C609.29325195 395.88530273 608.61262695 395.67905273 607.91137695 395.46655273 C607.41637695 394.47655273 607.41637695 394.47655273 606.91137695 393.46655273 Z M364.74835205 1045.46630859 C353.86796148 1045.46750447 342.98891262 1045.52998612 332.10904694 1045.63409805 C329.8068122 1045.65387717 327.50462011 1045.6673091 325.20233154 1045.67904663 C298.00495378 1045.29781003 298.00495378 1045.29781003 272.91137695 1054.46655273 C272.06833008 1054.95510742 271.2252832 1055.44366211 270.35668945 1055.94702148 C250.96282602 1067.99847975 239.64099773 1084.52897594 234.36257839 1106.77999687 C233.09858258 1112.666033 232.6097034 1118.2413019 232.60498047 1124.25219727 C232.59665695 1125.17405319 232.58833344 1126.09590912 232.57975769 1127.04570007 C232.55585806 1130.06363271 232.54690932 1133.08134828 232.5402832 1136.09936523 C232.53130022 1138.22150734 232.52217812 1140.34364886 232.51292419 1142.46578979 C232.49648492 1146.9055128 232.48874359 1151.34516087 232.48583984 1155.78491211 C232.48046775 1161.4332098 232.44281351 1167.08078844 232.39709568 1172.72888374 C232.36713558 1177.1113635 232.36011216 1181.49367422 232.35911369 1185.87624741 C232.35494735 1187.95637167 232.34266012 1190.03649815 232.32159615 1192.11651993 C232.17367195 1207.98885367 233.97841092 1221.39193557 241.91137695 1235.46655273 C242.26329102 1236.12397461 242.61520508 1236.78139648 242.9777832 1237.45874023 C244.79246013 1241.08243073 244.79246013 1241.08243073 247.91137695 1243.46655273 C248.34643555 1244.37727539 248.34643555 1244.37727539 248.7902832 1245.30639648 C250.11766455 1247.86403371 251.64141743 1249.1915585 253.84887695 1251.02905273 C257.76439018 1254.31515636 257.76439018 1254.31515636 259.47387695 1256.07592773 C262.00922229 1258.52859877 265.34430967 1260.46655273 268.91137695 1260.46655273 C268.91137695 1261.12655273 268.91137695 1261.78655273 268.91137695 1262.46655273 C271.74038887 1263.62415056 274.57383764 1264.76770274 277.41137695 1265.90405273 C278.20286133 1266.22954102 278.9943457 1266.5550293 279.80981445 1266.89038086 C289.74510542 1270.8400662 299.73032801 1270.75482967 310.28637695 1271.02905273 C311.06739777 1271.05056396 311.84841858 1271.0720752 312.65310669 1271.09423828 C324.86508358 1271.41926672 337.07466319 1271.50120479 349.2902832 1271.49389648 C350.36685684 1271.49330829 350.36685684 1271.49330829 351.46517944 1271.49270821 C358.72595902 1271.48738013 365.98663328 1271.47183858 373.24734116 1271.43893528 C386.14072874 1271.38207921 399.0287578 1271.34569191 411.9152832 1271.84155273 C413.27555885 1271.88783813 413.27555885 1271.88783813 414.66331482 1271.93505859 C420.01058546 1272.18008306 424.75804845 1273.0136443 429.91137695 1274.46655273 C431.54526367 1274.85327148 431.54526367 1274.85327148 433.2121582 1275.24780273 C434.70295898 1275.60358398 434.70295898 1275.60358398 436.22387695 1275.96655273 C437.73401367 1276.32233398 437.73401367 1276.32233398 439.2746582 1276.68530273 C441.91137695 1277.46655273 441.91137695 1277.46655273 444.91137695 1279.46655273 C446.39794886 1280.00516574 447.89972252 1280.50297871 449.41137695 1280.96655273 C452.40880948 1281.88576538 454.24610482 1282.68970464 456.91137695 1284.46655273 C457.90137695 1284.46655273 458.89137695 1284.46655273 459.91137695 1284.46655273 C460.24137695 1285.45655273 460.57137695 1286.44655273 460.91137695 1287.46655273 C462.63615075 1288.47538269 464.36515942 1289.47903666 466.13012695 1290.41577148 C468.42068188 1291.76699796 470.07452201 1293.56166613 471.91137695 1295.46655273 C472.57137695 1295.46655273 473.23137695 1295.46655273 473.91137695 1295.46655273 C474.24137695 1296.45655273 474.57137695 1297.44655273 474.91137695 1298.46655273 C475.57137695 1298.46655273 476.23137695 1298.46655273 476.91137695 1298.46655273 C476.91137695 1299.12655273 476.91137695 1299.78655273 476.91137695 1300.46655273 C479.22137695 1300.79655273 481.53137695 1301.12655273 483.91137695 1301.46655273 C483.83991455 1300.54617722 483.76845215 1299.6258017 483.69482422 1298.67753601 C482.63410559 1283.50595269 482.79850554 1268.31770042 482.84291458 1253.11916947 C482.85304711 1249.17553614 482.85643668 1245.23189735 482.86035156 1241.28825378 C482.87229264 1230.44030874 482.89431056 1219.59238896 482.9165802 1208.74446106 C482.93690345 1198.7990768 482.95494171 1188.85370143 482.96479511 1178.90830058 C482.96890354 1175.00604551 482.97509051 1171.10381911 482.98654175 1167.20157814 C483.04778452 1146.34702908 483.04778452 1146.34702908 482.52075195 1125.50048828 C482.48857071 1124.61381124 482.45638947 1123.72713419 482.42323303 1122.81358814 C481.87417219 1111.10262878 479.64854167 1098.80104811 473.91137695 1088.46655273 C473.41895508 1087.53842773 472.9265332 1086.61030273 472.41918945 1085.65405273 C466.59612924 1075.13497622 459.88482116 1066.26261649 449.91137695 1059.46655273 C449.08637695 1058.74467773 448.26137695 1058.02280273 447.41137695 1057.27905273 C444.6302347 1055.2627246 442.01848319 1054.24905869 438.77856445 1053.17749023 C436.91137695 1052.46655273 436.91137695 1052.46655273 433.91137695 1050.46655273 C421.33870202 1046.12261719 408.95899623 1045.759641 395.78637695 1045.65405273 C393.60945355 1045.62537691 391.43253304 1045.59648021 389.25561523 1045.56738281 C381.08654101 1045.47572404 372.91782842 1045.46723068 364.74835205 1045.46630859 Z " fill="#FEFEFE" transform="translate(492.088623046875,19.533447265625)"/>
<path d="M0 0 C0 3 0 3 -2.11132812 5.4519043 C-3.07697101 6.41707201 -4.05087603 7.37401783 -5.03125 8.32421875 C-5.54175903 8.83048294 -6.05226807 9.33674713 -6.57824707 9.85835266 C-8.21193407 11.47523405 -9.85573744 13.08138126 -11.5 14.6875 C-12.6087547 15.78121031 -13.71683647 16.87560326 -14.82421875 17.97070312 C-17.54173139 20.65512158 -20.26836361 23.3299581 -23 26 C-23.99 25.67 -24.98 25.34 -26 25 C-24.625 23.5 -24.625 23.5 -23 22 C-22.34 22 -21.68 22 -21 22 C-21 21.34 -21 20.68 -21 20 C-20.34 20 -19.68 20 -19 20 C-19 19.34 -19 18.68 -19 18 C-18.34 18 -17.68 18 -17 18 C-16.67 17.01 -16.34 16.02 -16 15 C-14.57337445 13.80561582 -13.14259837 12.61554547 -11.68359375 11.4609375 C-9.30212096 9.39441587 -7.39682032 7.00530402 -5.390625 4.58203125 C-3.77885724 2.74841905 -2.04156891 1.33487198 0 0 Z "   transform="translate(1107,78)"/>
<path d="M0 0 C0.33 0 0.66 0 1 0 C1.33 15.84 1.66 31.68 2 48 C1.01 48.495 1.01 48.495 0 49 C-0.99 48.34 -1.98 47.68 -3 47 C-2.34 47 -1.68 47 -1 47 C-0.67 31.49 -0.34 15.98 0 0 Z "   transform="translate(369,503)"/>
<path d="M0 0 C0 3 0 3 -1.46875 4.80932617 C-2.1390625 5.46392822 -2.809375 6.11853027 -3.5 6.79296875 C-4.221875 7.50517578 -4.94375 8.21738281 -5.6875 8.95117188 C-6.450625 9.68916016 -7.21375 10.42714844 -8 11.1875 C-9.1446875 12.31188477 -9.1446875 12.31188477 -10.3125 13.45898438 C-12.20180839 15.31286823 -14.09775206 17.15941069 -16 19 C-16.66 18.67 -17.32 18.34 -18 18 C-16.71937515 16.2925002 -15.38232443 14.62626404 -14 13 C-13.34 13 -12.68 13 -12 13 C-11.7525 12.41476563 -11.505 11.82953125 -11.25 11.2265625 C-9.81592202 8.67211111 -8.24285666 7.24679581 -6 5.375 C-3.92339664 3.6266832 -1.92037235 1.92037235 0 0 Z "   transform="translate(1041,144)"/>
<path d="M0 0 C1.32 0.99 2.64 1.98 4 3 C2.02 3.33 0.04 3.66 -2 4 C-2.33 4.99 -2.66 5.98 -3 7 C-5.64 6.67 -8.28 6.34 -11 6 C-11 5.34 -11 4.68 -11 4 C-7.52674819 2.8422494 -4.63932552 2.93133348 -1 3 C-0.67 2.01 -0.34 1.02 0 0 Z "   transform="translate(1099,835)"/>
<path d="M0 0 C0.33 0 0.66 0 1 0 C1 1.98 1 3.96 1 6 C1.66 6 2.32 6 3 6 C3 6.99 3 7.98 3 9 C2.34 9 1.68 9 1 9 C1 8.34 1 7.68 1 7 C-0.32 6.34 -1.64 5.68 -3 5 C-3 4.34 -3 3.68 -3 3 C-3.99 2.67 -4.98 2.34 -6 2 C-6 1.67 -6 1.34 -6 1 C-4.7934375 1.0309375 -4.7934375 1.0309375 -3.5625 1.0625 C-1.06645115 1.29633621 -1.06645115 1.29633621 0 0 Z "   transform="translate(976,1319)"/>
<path d="M0 0 C1.65 0 3.3 0 5 0 C5 0.66 5 1.32 5 2 C6.32 2 7.64 2 9 2 C9 2.66 9 3.32 9 4 C6.36 4.33 3.72 4.66 1 5 C0.67 3.35 0.34 1.7 0 0 Z "   transform="translate(601,837)"/>
<path d="M0 0 C0.99 0.33 1.98 0.66 3 1 C0.22420239 3.77579761 -2.30306937 3.86061387 -6.125 4.625 C-7.40632813 4.88539063 -8.68765625 5.14578125 -10.0078125 5.4140625 C-10.99523438 5.60742188 -11.98265625 5.80078125 -13 6 C-10.66134722 3.23888091 -8.90771821 2.5078974 -5.375 1.875 C-2.40059351 1.50902407 -2.40059351 1.50902407 0 0 Z "   transform="translate(1103,830)"/>
<path d="M0 0 C2.375 0.3125 2.375 0.3125 5 1 C5.66 1.99 6.32 2.98 7 4 C5.35 4.33 3.7 4.66 2 5 C2 4.34 2 3.68 2 3 C1.34 3 0.68 3 0 3 C0 2.01 0 1.02 0 0 Z "   transform="translate(1102,850)"/>
<path d="M0 0 C3.14737182 0.69941596 6.02588876 1.76078698 9 3 C9 3.66 9 4.32 9 5 C8.01 5.33 7.02 5.66 6 6 C5.01 5.34 4.02 4.68 3 4 C3 3.34 3 2.68 3 2 C1.02 2.99 1.02 2.99 -1 4 C-0.67 2.68 -0.34 1.36 0 0 Z "   transform="translate(1088,844)"/>
<path d="M0 0 C5.75 -0.125 5.75 -0.125 8 1 C8 1.66 8 2.32 8 3 C5.36 2.67 2.72 2.34 0 2 C0 1.34 0 0.68 0 0 Z "   transform="translate(1088,839)"/>
<path d="M0 0 C0.33 2.64 0.66 5.28 1 8 C0.67 6.68 0.34 5.36 0 4 C-1.32 3.67 -2.64 3.34 -4 3 C-4 2.34 -4 1.68 -4 1 C-2 0 -2 0 0 0 Z "   transform="translate(1104,412)"/>
</svg>
