<?xml version="1.0" standalone="no"?><!DOCTYPE svg PUBLIC "-//W3C//DTD SVG 1.1//EN" "http://www.w3.org/Graphics/SVG/1.1/DTD/svg11.dtd"><svg t="1773224686932" class="icon" viewBox="0 0 1031 1024" version="1.1" xmlns="http://www.w3.org/2000/svg" p-id="5735" xmlns:xlink="http://www.w3.org/1999/xlink" width="201.3671875" height="200"><path d="M414.966843 442.947683c-12.74028 11.928087-16.673841 26.659036-22.008834 40.928149-5.68535 15.176858-13.727652 29.477823-20.51185 44.256547-3.073593 6.672722-5.557947 13.6321-8.376734 20.416299-8.583764 20.702955-17.071975 41.326283-26.006097 61.806283-1.1307 2.595832-4.777605 4.124666-7.230109 6.067558-0.350358 0.270731-1.035148 0.127403-1.592535 0.175179-25.767216 2.755086-30.258165-0.493686-39.096734-24.652441-5.621649-15.272411-12.74028-29.987434-19.11042-44.989114-6.959378-16.434961-13.536547-33.029176-20.702955-49.368585-7.007154-15.813872-14.667247-31.341089-21.961057-47.027558a47.250513 47.250513 0 0 0-6.640871-11.81661 102.84591 102.84591 0 0 0-1.688087 13.154339q-0.222955 73.527341-0.159254 147.038756c0 18.027496 0 18.059347-18.043421 18.011571-6.895677 0-13.791353-0.302582-20.702955-0.270731-7.29381 0-10.542582-3.18507-10.335552-10.701835 0.318507-11.3707 0-22.77325 0-34.175801V355.613064c0-16.896796 0.429984-17.326781 17.342706-17.390482h38.22084c7.851198 0 12.74028 3.535428 15.495365 11.147745 3.567278 9.825941 7.835272 19.413002 11.896237 29.063763 6.736423 15.92535 13.42507 31.978103 20.336672 47.887527s14.173561 31.675521 21.101088 47.584946c6.083484 13.998383 11.880311 28.124168 17.884168 42.170327 1.210327 2.850638 2.707309 5.589798 5.223515 10.701835 4.140591-9.252628 7.405288-16.514588 10.638134-23.776548 7.468989-16.785319 15.03353-33.538787 22.29549-50.387807 3.66283-8.440435 6.784199-17.119751 10.335552-25.592037 6.624946-15.782022 13.377294-31.500342 20.081866-47.218663 4.538725-10.622208 9.31633-21.148865 13.552473-31.8507 2.468429-6.258663 6.784199-9.55521 13.21804-9.55521 16.196081-0.159253 32.376236 0 48.556392 0 5.717201 0 8.233406 2.786936 8.376734 8.201556 0.095552 2.914339 0.286656 5.828678 0.286656 8.743017v246.381088c0 14.683173-0.286656 14.969829-15.176858 15.288336-7.691944 0.159253-15.399813 0.143328-23.091757 0-9.395956-0.127403-11.545879-2.245474-11.561805-11.959937q-0.111477-72.332939-0.095552-144.649954c0.143328-5.526096-0.366283-11.020342-0.748491-17.454183zM805.743079 422.690638c2.563981-16.705692 14.746874-13.727652 25.385008-13.807279 6.624946 0 13.281742-0.20703 19.890762 0.159254s10.064821 3.312473 10.048896 10.542581c-0.143328 63.351042 0.429984 126.686159-0.398134 190.021276-0.222955 17.103826-4.411322 34.653561-14.332815 49.018227a82.270358 82.270358 0 0 1-36.803483 30.146687 163.553344 163.553344 0 0 1-49.14563 11.561804 97.622395 97.622395 0 0 1-26.834215-0.92367c-18.361928-3.646905-36.628305-8.249331-54.608025-13.345443-6.179036-1.751788-11.832535-5.780902-17.342706-9.364106-6.60902-4.31577-7.29381-11.354774-3.089518-18.887465a103.737729 103.737729 0 0 0 7.166408-15.590918c3.455801-9.55521 9.810016-12.230669 18.473406-6.991228a117.672411 117.672411 0 0 0 36.086843 13.727651c12.421773 2.771011 24.413561 7.198258 37.32902 5.542022 18.791913-2.420653 37.058289-7.389362 46.88423-25.098351 3.853935-6.927527 2.627683-16.737543 3.18507-25.273531 0-0.557387-5.92423-2.882488-7.309736-1.895116-24.158756 17.342706-51.279627 18.011571-79.085287 14.332815-15.03353-2.006594-28.42675-9.380031-39.271913-18.983018a156.450638 156.450638 0 0 1-28.42675-34.62171 96.937605 96.937605 0 0 1-11.306998-76.44168c7.468989-28.952286 22.98028-54.241742 50.75409-69.832659 17.995645-10.096672 37.042364-15.702395 57.490513-14.030234 18.266376 1.481058 35.72056 6.672722 50.96112 17.677139a41.692566 41.692566 0 0 0 4.299844 2.356952z m2.579907 88.130886c3.63098-34.58986-31.8507-59.735988-60.165972-59.226376-29.939658 0.541462-60.261524 25.018725-59.656361 59.672286 0.557387 32.201058 26.547558 56.694246 60.07042 57.888647 29.398196 1.035148 63.765101-27.582706 59.751913-58.334557zM510.295988 494.386563v-73.909549c0-9.778165 2.420653-12.310295 12.246594-12.326221q44.957263-0.143328 89.946376 0c11.450327 0 12.851757 1.847341 11.752908 13.377294-0.541462 5.796827-1.194401 11.60958-2.229549 17.326781-1.417356 7.962675-6.16311 11.800684-14.476143 11.641431-12.198818-0.23888-24.413561 0.20703-36.628305-0.143329-6.768274-0.191104-10.00112 2.866563-10.335552 9.157077-0.398134 7.389362-0.47776 14.810575-0.493686 22.215863q-0.095552 34.191726 0 68.351602a95.201742 95.201742 0 0 0 0.828119 13.472846c1.258103 8.551913 5.637574 12.74028 14.332815 12.931384 8.201555 0.20703 16.434961-0.414059 24.636516-0.875894 7.962675-0.44591 10.351477 1.592535 9.889642 9.300404-0.44591 7.389362-1.226252 14.778725-1.592535 22.184012-0.23888 5.255365-2.532131 7.962675-7.771571 9.380031-19.301524 4.936858-38.539347 7.50084-57.761244 0a45.323546 45.323546 0 0 1-10.144448-5.733125c-15.336112-11.322924-22.391042-26.674961-22.29549-45.673904 0.222955-23.585443 0-47.154961 0-70.740404zM535.42619 323.189051c25.878694 0.143328 24.636516-2.022519 24.668367 24.525039v11.147745c0 9.79409-1.751788 11.84846-11.291073 12.198818-9.252628 0.350358-18.537107 0.175179-27.821587 0.095552-7.023079 0-10.781462-3.455801-10.685909-10.781462 0.111477-8.201555-0.175179-16.40311 0.111477-24.604665 0.366283-10.064821 3.025816-12.437698 13.106563-12.549176 3.965412-0.063701 7.94675-0.031851 11.912162-0.031851z" p-id="5736"></path><path d="M761.964292 105.107309a164.922924 164.922924 0 0 1 164.206283 164.110731v487.140529A164.922924 164.922924 0 0 1 761.964292 920.485226H270.046159a164.922924 164.922924 0 0 1-164.031105-164.126657V269.21804a164.922924 164.922924 0 0 1 164.031105-164.031104h491.918133m0-103.514774H270.046159c-147.198009 0-267.545879 120.427496-267.545879 267.625505v487.060902c0 147.213935 120.427496 267.641431 267.545879 267.641431h491.918133c147.198009 0 267.641431-120.427496 267.641431-267.641431V269.21804c0-147.198009-120.443421-267.545879-267.641431-267.545878z" fill="#00D1AE" p-id="5737"></path><path d="M926.075023 261.542022h103.5307v312.471291h-103.5307zM2.388802 454.605039h103.451074v309.381773H2.388802z" p-id="5738"></path><path d="M926.075023 564.951788c-6.274588 189.336485 40.577792 296.800747-143.089269 354.132007a25.369082 25.369082 0 0 1-3.583203 0.382208v99.867869a3.296547 3.296547 0 0 0 3.535427 3.18507c138.550544-9.55521 249.040622-126.017294 249.040622-266.972566l-2.29325-192.027869c0-1.672162-51.088523 0.605163-103.610327 1.433281zM105.887652 457.646781C105.887652 246.110358 79.642675 152.564852 248.992846 106.699844a31.357014 31.357014 0 0 1 3.583204-0.382208V3.264697a3.312473 3.312473 0 0 0-3.535428-3.18507C110.490078 9.634837 0 126.096921 0 267.052193l2.356952 192.091571c0 1.592535 51.008896-0.668865 103.5307-1.496983z" fill="#FFCD00" p-id="5739"></path></svg>