<?xml version="1.0" standalone="no"?><!DOCTYPE svg PUBLIC "-//W3C//DTD SVG 1.1//EN" "http://www.w3.org/Graphics/SVG/1.1/DTD/svg11.dtd"><svg t="1773892004156" class="icon" viewBox="0 0 1024 1024" version="1.1" xmlns="http://www.w3.org/2000/svg" p-id="2487" xmlns:xlink="http://www.w3.org/1999/xlink" width="200" height="200"><path d="M512 64c247.424 0 448 200.576 448 448s-200.576 448-448 448S64 759.424 64 512 264.576 64 512 64z m106.656 337.824a32 32 0 0 0-40.832 19.52L511.936 608l-5.568 0.16a96 96 0 1 0 65.92 21.12l65.888-186.624a32 32 0 0 0-19.52-40.832zM512 192C335.264 192 192 335.264 192 512a32 32 0 0 0 64 0 256 256 0 1 1 512 0 32 32 0 0 0 64 0c0-176.736-143.264-320-320-320z" p-id="2488"></path></svg>