<?xml version="1.0" standalone="no"?><!DOCTYPE svg PUBLIC "-//W3C//DTD SVG 1.1//EN" "http://www.w3.org/Graphics/SVG/1.1/DTD/svg11.dtd"><svg t="1773225235606" class="icon" viewBox="0 0 1024 1024" version="1.1" xmlns="http://www.w3.org/2000/svg" p-id="14682" xmlns:xlink="http://www.w3.org/1999/xlink" width="200" height="200"><path d="M147.264646 1013.785859h59.604041c18.230303 0 32.969697-14.868687 32.969697-33.09899V637.543434H114.165657v343.272728c0 18.230303 14.868687 33.09899 33.098989 32.969697zM541.737374 10.343434h-59.474748c-18.230303 0-33.09899 14.868687-33.09899 33.09899v510.319192H574.836364V43.442424c0-8.791919-3.490909-17.19596-9.69697-23.40202-6.076768-6.206061-14.480808-9.69697-23.40202-9.69697z m-334.868687 0H147.264646C129.034343 10.343434 114.165657 25.212121 114.165657 43.442424v301.381818H239.967677V43.442424C239.967677 25.212121 225.09899 10.343434 206.868687 10.343434z m669.995959 0h-59.60404C799.030303 10.343434 784.290909 25.212121 784.290909 43.442424v176.09697h125.672727V43.442424c-0.129293-18.230303-14.868687-32.969697-33.09899-33.09899z m74.731314 250.828283H742.270707c-11.119192 0-21.721212 4.39596-29.608081 12.282828-7.886869 7.886869-12.282828 18.488889-12.282828 29.608081v125.414142c0 11.119192 4.39596 21.721212 12.153535 29.60808 7.886869 7.886869 18.488889 12.282828 29.608081 12.282829h209.454546c23.143434 0 41.890909-18.747475 41.890909-41.890909v-125.414142c0-11.119192-4.39596-21.721212-12.282829-29.608081-7.886869-7.757576-18.488889-12.153535-29.60808-12.282828z m-134.464647 752.614142h59.604041c18.230303 0 33.09899-14.868687 33.098989-33.09899V512.129293h-125.672727v468.686869c0.129293 18.230303 14.739394 32.969697 32.969697 32.969697z m-200.40404-418.133334h-209.454546c-11.119192 0-21.721212 4.39596-29.608081 12.153536-7.886869 7.886869-12.282828 18.488889-12.282828 29.60808v125.414142c0 11.119192 4.39596 21.721212 12.153536 29.608081 7.886869 7.886869 18.488889 12.282828 29.60808 12.282828h209.325253c11.119192 0 21.721212-4.39596 29.608081-12.282828 7.886869-7.886869 12.282828-18.488889 12.153535-29.608081v-125.284849c0-11.119192-4.266667-21.721212-12.153535-29.60808-7.628283-7.757576-18.230303-12.153535-29.349495-12.282829zM482.133333 1013.785859h59.604041c18.230303 0 33.09899-14.868687 33.09899-33.09899V846.480808h-125.543435v134.206061c0 18.230303 14.610101 33.09899 32.840404 33.09899z m-200.40404-627.070707H72.40404c-11.119192 0-21.721212 4.39596-29.60808 12.153535-7.886869 7.886869-12.282828 18.488889-12.282829 29.608081v125.543434c0 11.119192 4.39596 21.721212 12.282829 29.608081 7.886869 7.886869 18.488889 12.282828 29.60808 12.153535h209.325253c11.119192 0 21.721212-4.39596 29.608081-12.153535 7.886869-7.886869 12.282828-18.488889 12.282828-29.608081v-125.543434c0-11.119192-4.39596-21.721212-12.282828-29.608081-7.886869-7.757576-18.488889-12.153535-29.608081-12.153535z m0 0" p-id="14683"></path></svg>